0
SECTION
2
HEADER
9
$INSUNITS
70
4
0
ENDSEC
0
SECTION
2
TABLES
0
TABLE
2
LTYPE
0
LTYPE
72
65
70
64
2
CONTINUOUS
3
______
73
0
40
0
0
ENDTAB
0
TABLE
2
LAYER
0
ENDTAB
0
ENDSEC
0
SECTION
2
ENTITIES
0
LINE
8
0
10
9.25
20
-8.25
11
26.75
21
-8.25
0
LINE
8
0
10
26.75
20
-8.25
11
26.75
21
8.25
0
LINE
8
0
10
26.75
20
8.25
11
9.25
21
8.25
0
LINE
8
0
10
9.25
20
8.25
11
9.25
21
-8.25
0
LINE
8
0
10
9.25
20
8.75
11
26.75
21
8.75
0
LINE
8
0
10
26.75
20
8.75
11
26.75
21
25.25
0
LINE
8
0
10
26.75
20
25.25
11
9.25
21
25.25
0
LINE
8
0
10
9.25
20
25.25
11
9.25
21
8.75
0
LINE
8
0
10
9.25
20
25.75
11
26.75
21
25.75
0
LINE
8
0
10
26.75
20
25.75
11
26.75
21
42.25
0
LINE
8
0
10
26.75
20
42.25
11
9.25
21
42.25
0
LINE
8
0
10
9.25
20
42.25
11
9.25
21
25.75
0
LINE
8
0
10
27.25
20
-4.25
11
44.75
21
-4.25
0
LINE
8
0
10
44.75
20
-4.25
11
44.75
21
12.25
0
LINE
8
0
10
44.75
20
12.25
11
27.25
21
12.25
0
LINE
8
0
10
27.25
20
12.25
11
27.25
21
-4.25
0
LINE
8
0
10
27.25
20
12.75
11
44.75
21
12.75
0
LINE
8
0
10
44.75
20
12.75
11
44.75
21
29.25
0
LINE
8
0
10
44.75
20
29.25
11
27.25
21
29.25
0
LINE
8
0
10
27.25
20
29.25
11
27.25
21
12.75
0
LINE
8
0
10
27.25
20
29.75
11
44.75
21
29.75
0
LINE
8
0
10
44.75
20
29.75
11
44.75
21
46.25
0
LINE
8
0
10
44.75
20
46.25
11
27.25
21
46.25
0
LINE
8
0
10
27.25
20
46.25
11
27.25
21
29.75
0
LINE
8
0
10
45.25
20
7.75
11
62.75
21
7.75
0
LINE
8
0
10
62.75
20
7.75
11
62.75
21
24.25
0
LINE
8
0
10
62.75
20
24.25
11
45.25
21
24.25
0
LINE
8
0
10
45.25
20
24.25
11
45.25
21
7.75
0
LINE
8
0
10
45.25
20
24.75
11
62.75
21
24.75
0
LINE
8
0
10
62.75
20
24.75
11
62.75
21
41.25
0
LINE
8
0
10
62.75
20
41.25
11
45.25
21
41.25
0
LINE
8
0
10
45.25
20
41.25
11
45.25
21
24.75
0
LINE
8
0
10
45.25
20
41.75
11
62.75
21
41.75
0
LINE
8
0
10
62.75
20
41.75
11
62.75
21
58.25
0
LINE
8
0
10
62.75
20
58.25
11
45.25
21
58.25
0
LINE
8
0
10
45.25
20
58.25
11
45.25
21
41.75
0
LINE
8
0
10
63.25
20
12.75
11
80.75
21
12.75
0
LINE
8
0
10
80.75
20
12.75
11
80.75
21
29.25
0
LINE
8
0
10
80.75
20
29.25
11
63.25
21
29.25
0
LINE
8
0
10
63.25
20
29.25
11
63.25
21
12.75
0
LINE
8
0
10
63.25
20
29.75
11
80.75
21
29.75
0
LINE
8
0
10
80.75
20
29.75
11
80.75
21
46.25
0
LINE
8
0
10
80.75
20
46.25
11
63.25
21
46.25
0
LINE
8
0
10
63.25
20
46.25
11
63.25
21
29.75
0
LINE
8
0
10
63.25
20
46.75
11
80.75
21
46.75
0
LINE
8
0
10
80.75
20
46.75
11
80.75
21
63.25
0
LINE
8
0
10
80.75
20
63.25
11
63.25
21
63.25
0
LINE
8
0
10
63.25
20
63.25
11
63.25
21
46.75
0
LINE
8
0
10
81.25
20
6.75
11
98.75
21
6.75
0
LINE
8
0
10
98.75
20
6.75
11
98.75
21
23.25
0
LINE
8
0
10
98.75
20
23.25
11
81.25
21
23.25
0
LINE
8
0
10
81.25
20
23.25
11
81.25
21
6.75
0
LINE
8
0
10
81.25
20
23.75
11
98.75
21
23.75
0
LINE
8
0
10
98.75
20
23.75
11
98.75
21
40.25
0
LINE
8
0
10
98.75
20
40.25
11
81.25
21
40.25
0
LINE
8
0
10
81.25
20
40.25
11
81.25
21
23.75
0
LINE
8
0
10
81.25
20
40.75
11
98.75
21
40.75
0
LINE
8
0
10
98.75
20
40.75
11
98.75
21
57.25
0
LINE
8
0
10
98.75
20
57.25
11
81.25
21
57.25
0
LINE
8
0
10
81.25
20
57.25
11
81.25
21
40.75
0
LINE
8
0
10
99.25
20
25.75
11
116.75
21
25.75
0
LINE
8
0
10
116.75
20
25.75
11
116.75
21
42.25
0
LINE
8
0
10
116.75
20
42.25
11
99.25
21
42.25
0
LINE
8
0
10
99.25
20
42.25
11
99.25
21
25.75
0
LINE
8
0
10
99.25
20
42.75
11
116.75
21
42.75
0
LINE
8
0
10
116.75
20
42.75
11
116.75
21
59.25
0
LINE
8
0
10
116.75
20
59.25
11
99.25
21
59.25
0
LINE
8
0
10
99.25
20
59.25
11
99.25
21
42.75
0
LINE
8
0
10
76.25
20
-12.25
11
93.75
21
-12.25
0
LINE
8
0
10
93.75
20
-12.25
11
93.75
21
4.25
0
LINE
8
0
10
93.75
20
4.25
11
76.25
21
4.25
0
LINE
8
0
10
76.25
20
4.25
11
76.25
21
-12.25
0
ENDSEC
0
EOF