0
SECTION
2
HEADER
9
$INSUNITS
70
4
0
ENDSEC
0
SECTION
2
TABLES
0
TABLE
2
LTYPE
0
LTYPE
72
65
70
64
2
CONTINUOUS
3
______
73
0
40
0
0
ENDTAB
0
TABLE
2
LAYER
0
ENDTAB
0
ENDSEC
0
SECTION
2
ENTITIES
0
LINE
8
0
10
9.25
20
-8.25
11
26.75
21
-8.25
0
LINE
8
0
10
26.75
20
-8.25
11
26.75
21
8.25
0
LINE
8
0
10
26.75
20
8.25
11
9.25
21
8.25
0
LINE
8
0
10
9.25
20
8.25
11
9.25
21
-8.25
0
LINE
8
0
10
9.25
20
8.75
11
26.75
21
8.75
0
LINE
8
0
10
26.75
20
8.75
11
26.75
21
25.25
0
LINE
8
0
10
26.75
20
25.25
11
9.25
21
25.25
0
LINE
8
0
10
9.25
20
25.25
11
9.25
21
8.75
0
LINE
8
0
10
9.25
20
25.75
11
26.75
21
25.75
0
LINE
8
0
10
26.75
20
25.75
11
26.75
21
42.25
0
LINE
8
0
10
26.75
20
42.25
11
9.25
21
42.25
0
LINE
8
0
10
9.25
20
42.25
11
9.25
21
25.75
0
LINE
8
0
10
27.25
20
-4.25
11
44.75
21
-4.25
0
LINE
8
0
10
44.75
20
-4.25
11
44.75
21
12.25
0
LINE
8
0
10
44.75
20
12.25
11
27.25
21
12.25
0
LINE
8
0
10
27.25
20
12.25
11
27.25
21
-4.25
0
LINE
8
0
10
27.25
20
12.75
11
44.75
21
12.75
0
LINE
8
0
10
44.75
20
12.75
11
44.75
21
29.25
0
LINE
8
0
10
44.75
20
29.25
11
27.25
21
29.25
0
LINE
8
0
10
27.25
20
29.25
11
27.25
21
12.75
0
LINE
8
0
10
27.25
20
29.75
11
44.75
21
29.75
0
LINE
8
0
10
44.75
20
29.75
11
44.75
21
46.25
0
LINE
8
0
10
44.75
20
46.25
11
27.25
21
46.25
0
LINE
8
0
10
27.25
20
46.25
11
27.25
21
29.75
0
LINE
8
0
10
45.25
20
7.75
11
62.75
21
7.75
0
LINE
8
0
10
62.75
20
7.75
11
62.75
21
24.25
0
LINE
8
0
10
62.75
20
24.25
11
45.25
21
24.25
0
LINE
8
0
10
45.25
20
24.25
11
45.25
21
7.75
0
LINE
8
0
10
45.25
20
24.75
11
62.75
21
24.75
0
LINE
8
0
10
62.75
20
24.75
11
62.75
21
41.25
0
LINE
8
0
10
62.75
20
41.25
11
45.25
21
41.25
0
LINE
8
0
10
45.25
20
41.25
11
45.25
21
24.75
0
LINE
8
0
10
45.25
20
41.75
11
62.75
21
41.75
0
LINE
8
0
10
62.75
20
41.75
11
62.75
21
58.25
0
LINE
8
0
10
62.75
20
58.25
11
45.25
21
58.25
0
LINE
8
0
10
45.25
20
58.25
11
45.25
21
41.75
0
LINE
8
0
10
63.25
20
12.75
11
80.75
21
12.75
0
LINE
8
0
10
80.75
20
12.75
11
80.75
21
29.25
0
LINE
8
0
10
80.75
20
29.25
11
63.25
21
29.25
0
LINE
8
0
10
63.25
20
29.25
11
63.25
21
12.75
0
LINE
8
0
10
63.25
20
29.75
11
80.75
21
29.75
0
LINE
8
0
10
80.75
20
29.75
11
80.75
21
46.25
0
LINE
8
0
10
80.75
20
46.25
11
63.25
21
46.25
0
LINE
8
0
10
63.25
20
46.25
11
63.25
21
29.75
0
LINE
8
0
10
63.25
20
46.75
11
80.75
21
46.75
0
LINE
8
0
10
80.75
20
46.75
11
80.75
21
63.25
0
LINE
8
0
10
80.75
20
63.25
11
63.25
21
63.25
0
LINE
8
0
10
63.25
20
63.25
11
63.25
21
46.75
0
LINE
8
0
10
81.25
20
6.75
11
98.75
21
6.75
0
LINE
8
0
10
98.75
20
6.75
11
98.75
21
23.25
0
LINE
8
0
10
98.75
20
23.25
11
81.25
21
23.25
0
LINE
8
0
10
81.25
20
23.25
11
81.25
21
6.75
0
LINE
8
0
10
81.25
20
23.75
11
98.75
21
23.75
0
LINE
8
0
10
98.75
20
23.75
11
98.75
21
40.25
0
LINE
8
0
10
98.75
20
40.25
11
81.25
21
40.25
0
LINE
8
0
10
81.25
20
40.25
11
81.25
21
23.75
0
LINE
8
0
10
81.25
20
40.75
11
98.75
21
40.75
0
LINE
8
0
10
98.75
20
40.75
11
98.75
21
57.25
0
LINE
8
0
10
98.75
20
57.25
11
81.25
21
57.25
0
LINE
8
0
10
81.25
20
57.25
11
81.25
21
40.75
0
LINE
8
0
10
99.25
20
25.75
11
116.75
21
25.75
0
LINE
8
0
10
116.75
20
25.75
11
116.75
21
42.25
0
LINE
8
0
10
116.75
20
42.25
11
99.25
21
42.25
0
LINE
8
0
10
99.25
20
42.25
11
99.25
21
25.75
0
LINE
8
0
10
99.25
20
42.75
11
116.75
21
42.75
0
LINE
8
0
10
116.75
20
42.75
11
116.75
21
59.25
0
LINE
8
0
10
116.75
20
59.25
11
99.25
21
59.25
0
LINE
8
0
10
99.25
20
59.25
11
99.25
21
42.75
0
LINE
8
0
10
76.25
20
-12.25
11
93.75
21
-12.25
0
LINE
8
0
10
93.75
20
-12.25
11
93.75
21
4.25
0
LINE
8
0
10
93.75
20
4.25
11
76.25
21
4.25
0
LINE
8
0
10
76.25
20
4.25
11
76.25
21
-12.25
0
LINE
8
0
10
105.1494949
20
-29.3241161
11
123.8878246
21
-10.5857864
0
LINE
8
0
10
123.8878246
20
-10.5857864
11
112.2205627
21
1.0814755
0
LINE
8
0
10
112.2205627
20
1.0814755
11
93.482233
21
-17.6568542
0
LINE
8
0
10
93.482233
20
-17.6568542
11
105.1494949
21
-29.3241161
0
LINE
8
0
10
117.877417
20
-42.0520382
11
136.6157467
21
-23.3137085
0
LINE
8
0
10
136.6157467
20
-23.3137085
11
124.9484848
21
-11.6464466
0
LINE
8
0
10
124.9484848
20
-11.6464466
11
106.2101551
21
-30.3847763
0
LINE
8
0
10
106.2101551
20
-30.3847763
11
117.877417
21
-42.0520382
0
LINE
8
0
10
130.6053391
20
-54.7799603
11
149.3436688
21
-36.0416306
0
LINE
8
0
10
149.3436688
20
-36.0416306
11
137.6764069
21
-24.3743687
0
LINE
8
0
10
137.6764069
20
-24.3743687
11
118.9380772
21
-43.1126984
0
LINE
8
0
10
118.9380772
20
-43.1126984
11
130.6053391
21
-54.7799603
0
ENDSEC
0
EOF