0
SECTION
2
HEADER
9
$INSUNITS
70
4
0
ENDSEC
0
SECTION
2
TABLES
0
TABLE
2
LTYPE
0
LTYPE
72
65
70
64
2
CONTINUOUS
3
______
73
0
40
0
0
ENDTAB
0
TABLE
2
LAYER
0
ENDTAB
0
ENDSEC
0
SECTION
2
ENTITIES
0
LINE
8
0
10
131.5857864
20
-5.4142136
11
124.5857864
21
1.5857864
0
ARC
8
0
10
126
20
3
40
2
50
180
51
225
0
LINE
8
0
10
124
20
3
11
124
21
45
0
ARC
8
0
10
126
20
45
40
2
50
135
51
180
0
LINE
8
0
10
124.5857864
20
46.4142136
11
131.5857864
21
53.4142136
0
ARC
8
0
10
133
20
52
40
2
50
450
51
135
0
LINE
8
0
10
133
20
54
11
150
21
54
0
ARC
8
0
10
150
20
52
40
2
50
405
51
90
0
LINE
8
0
10
151.4142136
20
53.4142136
11
158.4142136
21
46.4142136
0
ARC
8
0
10
157
20
45
40
2
50
360
51
45
0
LINE
8
0
10
159
20
45
11
159
21
3
0
ARC
8
0
10
157
20
3
40
2
50
315
51
0
0
LINE
8
0
10
158.4142136
20
1.5857864
11
151.4142136
21
-5.4142136
0
ARC
8
0
10
150
20
-4
40
2
50
270
51
315
0
LINE
8
0
10
150
20
-6
11
133
21
-6
0
ARC
8
0
10
133
20
-4
40
2
50
225
51
270
0
LINE
8
0
10
196.5857864
20
-5.4142136
11
189.5857864
21
1.5857864
0
ARC
8
0
10
191
20
3
40
2
50
180
51
225
0
LINE
8
0
10
189
20
3
11
189
21
45
0
ARC
8
0
10
191
20
45
40
2
50
135
51
180
0
LINE
8
0
10
189.5857864
20
46.4142136
11
196.5857864
21
53.4142136
0
ARC
8
0
10
198
20
52
40
2
50
450
51
135
0
LINE
8
0
10
198
20
54
11
215
21
54
0
ARC
8
0
10
215
20
52
40
2
50
405
51
90
0
LINE
8
0
10
216.4142136
20
53.4142136
11
223.4142136
21
46.4142136
0
ARC
8
0
10
222
20
45
40
2
50
360
51
45
0
LINE
8
0
10
224
20
45
11
224
21
3
0
ARC
8
0
10
222
20
3
40
2
50
315
51
0
0
LINE
8
0
10
223.4142136
20
1.5857864
11
216.4142136
21
-5.4142136
0
ARC
8
0
10
215
20
-4
40
2
50
270
51
315
0
LINE
8
0
10
215
20
-6
11
198
21
-6
0
ARC
8
0
10
198
20
-4
40
2
50
225
51
270
0
ENDSEC
0
EOF