0
SECTION
2
HEADER
9
$INSUNITS
70
4
0
ENDSEC
0
SECTION
2
TABLES
0
TABLE
2
LTYPE
0
LTYPE
72
65
70
64
2
CONTINUOUS
3
______
73
0
40
0
0
ENDTAB
0
TABLE
2
LAYER
0
ENDTAB
0
ENDSEC
0
SECTION
2
ENTITIES
0
LINE
8
0
10
10.75
20
-15.25
11
91.4185245
21
-15.25
0
LINE
8
0
10
8.75
20
-13.25
11
8.75
21
46.25
0
LINE
8
0
10
10.75
20
48.25
11
27.75
21
48.25
0
LINE
8
0
10
29.75
20
52.25
11
44.75
21
52.25
0
LINE
8
0
10
27.75
20
48.25
11
27.75
21
50.25
0
LINE
8
0
10
48.75
20
64.25
11
63.75
21
64.25
0
LINE
8
0
10
46.75
20
54.25
11
46.75
21
62.25
0
LINE
8
0
10
67.75
20
69.25
11
84.25
21
69.25
0
LINE
8
0
10
86.25
20
67.25
11
86.25
21
65.25
0
LINE
8
0
10
65.75
20
66.25
11
65.75
21
67.25
0
LINE
8
0
10
88.25
20
63.25
11
122.25
21
63.25
0
LINE
8
0
10
124.25
20
46
11
124.25
21
61.25
0
LINE
8
0
10
92.8327381
20
-15.8357864
11
135.605339
21
-58.6083873
0
LINE
8
0
10
146.0857864
20
-25.9553211
11
157.1720958
21
-37.0416305
0
LINE
8
0
10
138.4337662
20
-58.6083873
11
157.1720958
21
-39.8700577
0
LINE
8
0
10
339.25
20
-13.25
11
339.25
21
46.25
0
LINE
8
0
10
256.5814755
20
-15.25
11
337.25
21
-15.25
0
LINE
8
0
10
322.25
20
48.25
11
337.25
21
48.25
0
LINE
8
0
10
303.25
20
52.25
11
320.25
21
52.25
0
LINE
8
0
10
320.25
20
52.25
11
320.25
21
50.25
0
LINE
8
0
10
284.25
20
64.25
11
299.25
21
64.25
0
LINE
8
0
10
301.25
20
54.25
11
301.25
21
62.25
0
LINE
8
0
10
263.75
20
69.25
11
280.25
21
69.25
0
LINE
8
0
10
282.25
20
67.25
11
282.25
21
66.25
0
LINE
8
0
10
261.75
20
65.25
11
261.75
21
67.25
0
LINE
8
0
10
225.75
20
63.25
11
259.75
21
63.25
0
LINE
8
0
10
223.75
20
46
11
223.75
21
61.25
0
LINE
8
0
10
212.394661
20
-58.6083873
11
255.1672619
21
-15.8357864
0
LINE
8
0
10
190.8279042
20
-39.8700577
11
209.5662338
21
-58.6083873
0
LINE
8
0
10
190.8279042
20
-37.0416305
11
201.9142136
21
-25.9553211
0
LINE
8
0
10
145.5
20
-24.5411075
11
145.5
21
42
0
LINE
8
0
10
143.5
20
44
11
126.25
21
44
0
LINE
8
0
10
221.75
20
44
11
204.5
21
44
0
LINE
8
0
10
202.5
20
42
11
202.5
21
-24.5411075
0
ARC
8
0
10
91.4185245
20
-17.25
40
2
50
45
51
90
0
ARC
8
0
10
137.0195526
20
-57.1941737
40
2
50
225
51
315
0
ARC
8
0
10
155.7578822
20
-38.4558441
40
2
50
315
51
45
0
ARC
8
0
10
147.5
20
-24.5411075
40
2
50
180
51
225
0
ARC
8
0
10
143.5
20
42
40
2
50
0
51
90
0
ARC
8
0
10
126.25
20
46
40
2
50
180
51
270
0
ARC
8
0
10
122.25
20
61.25
40
2
50
0
51
90
0
ARC
8
0
10
88.25
20
65.25
40
2
50
180
51
270
0
ARC
8
0
10
84.25
20
67.25
40
2
50
0
51
90
0
ARC
8
0
10
67.75
20
67.25
40
2
50
90
51
180
0
ARC
8
0
10
63.75
20
66.25
40
2
50
270
51
0
0
ARC
8
0
10
48.75
20
62.25
40
2
50
90
51
180
0
ARC
8
0
10
44.75
20
54.25
40
2
50
270
51
0
0
ARC
8
0
10
29.75
20
50.25
40
2
50
90
51
180
0
ARC
8
0
10
10.75
20
46.25
40
2
50
90
51
180
0
ARC
8
0
10
10.75
20
-13.25
40
2
50
180
51
270
0
ARC
8
0
10
337.25
20
46.25
40
2
50
0
51
90
0
ARC
8
0
10
322.25
20
50.25
40
2
50
180
51
270
0
ARC
8
0
10
303.25
20
54.25
40
2
50
180
51
270
0
ARC
8
0
10
299.25
20
62.25
40
2
50
0
51
90
0
ARC
8
0
10
284.25
20
66.25
40
2
50
180
51
270
0
ARC
8
0
10
280.25
20
67.25
40
2
50
0
51
90
0
ARC
8
0
10
263.75
20
67.25
40
2
50
90
51
180
0
ARC
8
0
10
259.75
20
65.25
40
2
50
270
51
0
0
ARC
8
0
10
225.75
20
61.25
40
2
50
90
51
180
0
ARC
8
0
10
221.75
20
46
40
2
50
270
51
0
0
ARC
8
0
10
204.5
20
42
40
2
50
90
51
180
0
ARC
8
0
10
200.5
20
-24.5411075
40
2
50
315
51
0
0
ARC
8
0
10
192.2421178
20
-38.4558441
40
2
50
135
51
225
0
ARC
8
0
10
210.9804474
20
-57.1941737
40
2
50
225
51
315
0
ARC
8
0
10
256.5814755
20
-17.25
40
2
50
90
51
135
0
ARC
8
0
10
337.25
20
-13.25
40
2
50
270
51
0
0
ENDSEC
0
EOF