0
SECTION
2
HEADER
9
$INSUNITS
70
4
0
ENDSEC
0
SECTION
2
TABLES
0
TABLE
2
LTYPE
0
LTYPE
72
65
70
64
2
CONTINUOUS
3
______
73
0
40
0
0
ENDTAB
0
TABLE
2
LAYER
0
ENDTAB
0
ENDSEC
0
SECTION
2
ENTITIES
0
LINE
8
0
10
12
20
-7
11
26
21
-7
0
LINE
8
0
10
26
20
-7
11
26
21
7
0
LINE
8
0
10
26
20
7
11
12
21
7
0
LINE
8
0
10
12
20
7
11
12
21
-7
0
LINE
8
0
10
12
20
12
11
26
21
12
0
LINE
8
0
10
26
20
12
11
26
21
26
0
LINE
8
0
10
26
20
26
11
12
21
26
0
LINE
8
0
10
12
20
26
11
12
21
12
0
LINE
8
0
10
12
20
31
11
26
21
31
0
LINE
8
0
10
26
20
31
11
26
21
45
0
LINE
8
0
10
26
20
45
11
12
21
45
0
LINE
8
0
10
12
20
45
11
12
21
31
0
LINE
8
0
10
31
20
-3
11
45
21
-3
0
LINE
8
0
10
45
20
-3
11
45
21
11
0
LINE
8
0
10
45
20
11
11
31
21
11
0
LINE
8
0
10
31
20
11
11
31
21
-3
0
LINE
8
0
10
31
20
16
11
45
21
16
0
LINE
8
0
10
45
20
16
11
45
21
30
0
LINE
8
0
10
45
20
30
11
31
21
30
0
LINE
8
0
10
31
20
30
11
31
21
16
0
LINE
8
0
10
31
20
35
11
45
21
35
0
LINE
8
0
10
45
20
35
11
45
21
49
0
LINE
8
0
10
45
20
49
11
31
21
49
0
LINE
8
0
10
31
20
49
11
31
21
35
0
LINE
8
0
10
50
20
9
11
64
21
9
0
LINE
8
0
10
64
20
9
11
64
21
23
0
LINE
8
0
10
64
20
23
11
50
21
23
0
LINE
8
0
10
50
20
23
11
50
21
9
0
LINE
8
0
10
50
20
28
11
64
21
28
0
LINE
8
0
10
64
20
28
11
64
21
42
0
LINE
8
0
10
64
20
42
11
50
21
42
0
LINE
8
0
10
50
20
42
11
50
21
28
0
LINE
8
0
10
50
20
47
11
64
21
47
0
LINE
8
0
10
64
20
47
11
64
21
61
0
LINE
8
0
10
64
20
61
11
50
21
61
0
LINE
8
0
10
50
20
61
11
50
21
47
0
LINE
8
0
10
69
20
14
11
83
21
14
0
LINE
8
0
10
83
20
14
11
83
21
28
0
LINE
8
0
10
83
20
28
11
69
21
28
0
LINE
8
0
10
69
20
28
11
69
21
14
0
LINE
8
0
10
69
20
33
11
83
21
33
0
LINE
8
0
10
83
20
33
11
83
21
47
0
LINE
8
0
10
83
20
47
11
69
21
47
0
LINE
8
0
10
69
20
47
11
69
21
33
0
LINE
8
0
10
69
20
52
11
83
21
52
0
LINE
8
0
10
83
20
52
11
83
21
66
0
LINE
8
0
10
83
20
66
11
69
21
66
0
LINE
8
0
10
69
20
66
11
69
21
52
0
LINE
8
0
10
88
20
8
11
102
21
8
0
LINE
8
0
10
102
20
8
11
102
21
22
0
LINE
8
0
10
102
20
22
11
88
21
22
0
LINE
8
0
10
88
20
22
11
88
21
8
0
LINE
8
0
10
88
20
27
11
102
21
27
0
LINE
8
0
10
102
20
27
11
102
21
41
0
LINE
8
0
10
102
20
41
11
88
21
41
0
LINE
8
0
10
88
20
41
11
88
21
27
0
LINE
8
0
10
88
20
46
11
102
21
46
0
LINE
8
0
10
102
20
46
11
102
21
60
0
LINE
8
0
10
102
20
60
11
88
21
60
0
LINE
8
0
10
88
20
60
11
88
21
46
0
LINE
8
0
10
107
20
27
11
121
21
27
0
LINE
8
0
10
121
20
27
11
121
21
41
0
LINE
8
0
10
121
20
41
11
107
21
41
0
LINE
8
0
10
107
20
41
11
107
21
27
0
LINE
8
0
10
107
20
46
11
121
21
46
0
LINE
8
0
10
121
20
46
11
121
21
60
0
LINE
8
0
10
121
20
60
11
107
21
60
0
LINE
8
0
10
107
20
60
11
107
21
46
0
LINE
8
0
10
113.6850288
20
-25.0208152
11
123.5845237
21
-15.1213203
0
LINE
8
0
10
123.5845237
20
-15.1213203
11
113.6850288
21
-5.2218254
0
LINE
8
0
10
113.6850288
20
-5.2218254
11
103.7855339
21
-15.1213203
0
LINE
8
0
10
103.7855339
20
-15.1213203
11
113.6850288
21
-25.0208152
0
LINE
8
0
10
127.1200577
20
-38.4558441
11
137.0195526
21
-28.5563492
0
LINE
8
0
10
137.0195526
20
-28.5563492
11
127.1200577
21
-18.6568543
0
LINE
8
0
10
127.1200577
20
-18.6568543
11
117.2205628
21
-28.5563492
0
LINE
8
0
10
117.2205628
20
-28.5563492
11
127.1200577
21
-38.4558441
0
LINE
8
0
10
140.5550865
20
-51.8908729
11
150.4545814
21
-41.991378
0
LINE
8
0
10
150.4545814
20
-41.991378
11
140.5550865
21
-32.0918831
0
LINE
8
0
10
140.5550865
20
-32.0918831
11
130.6555916
21
-41.991378
0
LINE
8
0
10
130.6555916
20
-41.991378
11
140.5550865
21
-51.8908729
0
LINE
8
0
10
322
20
-7
11
336
21
-7
0
LINE
8
0
10
336
20
-7
11
336
21
7
0
LINE
8
0
10
336
20
7
11
322
21
7
0
LINE
8
0
10
322
20
7
11
322
21
-7
0
LINE
8
0
10
322
20
12
11
336
21
12
0
LINE
8
0
10
336
20
12
11
336
21
26
0
LINE
8
0
10
336
20
26
11
322
21
26
0
LINE
8
0
10
322
20
26
11
322
21
12
0
LINE
8
0
10
322
20
31
11
336
21
31
0
LINE
8
0
10
336
20
31
11
336
21
45
0
LINE
8
0
10
336
20
45
11
322
21
45
0
LINE
8
0
10
322
20
45
11
322
21
31
0
LINE
8
0
10
303
20
-3
11
317
21
-3
0
LINE
8
0
10
317
20
-3
11
317
21
11
0
LINE
8
0
10
317
20
11
11
303
21
11
0
LINE
8
0
10
303
20
11
11
303
21
-3
0
LINE
8
0
10
303
20
16
11
317
21
16
0
LINE
8
0
10
317
20
16
11
317
21
30
0
LINE
8
0
10
317
20
30
11
303
21
30
0
LINE
8
0
10
303
20
30
11
303
21
16
0
LINE
8
0
10
303
20
35
11
317
21
35
0
LINE
8
0
10
317
20
35
11
317
21
49
0
LINE
8
0
10
317
20
49
11
303
21
49
0
LINE
8
0
10
303
20
49
11
303
21
35
0
LINE
8
0
10
284
20
9
11
298
21
9
0
LINE
8
0
10
298
20
9
11
298
21
23
0
LINE
8
0
10
298
20
23
11
284
21
23
0
LINE
8
0
10
284
20
23
11
284
21
9
0
LINE
8
0
10
284
20
28
11
298
21
28
0
LINE
8
0
10
298
20
28
11
298
21
42
0
LINE
8
0
10
298
20
42
11
284
21
42
0
LINE
8
0
10
284
20
42
11
284
21
28
0
LINE
8
0
10
284
20
47
11
298
21
47
0
LINE
8
0
10
298
20
47
11
298
21
61
0
LINE
8
0
10
298
20
61
11
284
21
61
0
LINE
8
0
10
284
20
61
11
284
21
47
0
LINE
8
0
10
265
20
14
11
279
21
14
0
LINE
8
0
10
279
20
14
11
279
21
28
0
LINE
8
0
10
279
20
28
11
265
21
28
0
LINE
8
0
10
265
20
28
11
265
21
14
0
LINE
8
0
10
265
20
33
11
279
21
33
0
LINE
8
0
10
279
20
33
11
279
21
47
0
LINE
8
0
10
279
20
47
11
265
21
47
0
LINE
8
0
10
265
20
47
11
265
21
33
0
LINE
8
0
10
265
20
52
11
279
21
52
0
LINE
8
0
10
279
20
52
11
279
21
66
0
LINE
8
0
10
279
20
66
11
265
21
66
0
LINE
8
0
10
265
20
66
11
265
21
52
0
LINE
8
0
10
246
20
8
11
260
21
8
0
LINE
8
0
10
260
20
8
11
260
21
22
0
LINE
8
0
10
260
20
22
11
246
21
22
0
LINE
8
0
10
246
20
22
11
246
21
8
0
LINE
8
0
10
246
20
27
11
260
21
27
0
LINE
8
0
10
260
20
27
11
260
21
41
0
LINE
8
0
10
260
20
41
11
246
21
41
0
LINE
8
0
10
246
20
41
11
246
21
27
0
LINE
8
0
10
246
20
46
11
260
21
46
0
LINE
8
0
10
260
20
46
11
260
21
60
0
LINE
8
0
10
260
20
60
11
246
21
60
0
LINE
8
0
10
246
20
60
11
246
21
46
0
LINE
8
0
10
227
20
27
11
241
21
27
0
LINE
8
0
10
241
20
27
11
241
21
41
0
LINE
8
0
10
241
20
41
11
227
21
41
0
LINE
8
0
10
227
20
41
11
227
21
27
0
LINE
8
0
10
227
20
46
11
241
21
46
0
LINE
8
0
10
241
20
46
11
241
21
60
0
LINE
8
0
10
241
20
60
11
227
21
60
0
LINE
8
0
10
227
20
60
11
227
21
46
0
LINE
8
0
10
224.4154763
20
-15.1213203
11
234.3149712
21
-25.0208152
0
LINE
8
0
10
234.3149712
20
-25.0208152
11
244.2144661
21
-15.1213203
0
LINE
8
0
10
244.2144661
20
-15.1213203
11
234.3149712
21
-5.2218254
0
LINE
8
0
10
234.3149712
20
-5.2218254
11
224.4154763
21
-15.1213203
0
LINE
8
0
10
210.9804474
20
-28.5563492
11
220.8799423
21
-38.4558441
0
LINE
8
0
10
220.8799423
20
-38.4558441
11
230.7794372
21
-28.5563492
0
LINE
8
0
10
230.7794372
20
-28.5563492
11
220.8799423
21
-18.6568543
0
LINE
8
0
10
220.8799423
20
-18.6568543
11
210.9804474
21
-28.5563492
0
LINE
8
0
10
197.5454186
20
-41.991378
11
207.4449135
21
-51.8908729
0
LINE
8
0
10
207.4449135
20
-51.8908729
11
217.3444084
21
-41.991378
0
LINE
8
0
10
217.3444084
20
-41.991378
11
207.4449135
21
-32.0918831
0
LINE
8
0
10
207.4449135
20
-32.0918831
11
197.5454186
21
-41.991378
0
ENDSEC
0
EOF