0
SECTION
2
HEADER
9
$INSUNITS
70
4
0
ENDSEC
0
SECTION
2
TABLES
0
TABLE
2
LTYPE
0
LTYPE
72
65
70
64
2
CONTINUOUS
3
______
73
0
40
0
0
ENDTAB
0
TABLE
2
LAYER
0
ENDTAB
0
ENDSEC
0
SECTION
2
ENTITIES
0
LINE
8
0
10
9.75
20
-9.25
11
28.25
21
-9.25
0
LINE
8
0
10
28.25
20
-9.25
11
28.25
21
9.25
0
LINE
8
0
10
28.25
20
9.25
11
9.75
21
9.25
0
LINE
8
0
10
9.75
20
9.25
11
9.75
21
-9.25
0
LINE
8
0
10
9.75
20
9.75
11
28.25
21
9.75
0
LINE
8
0
10
28.25
20
9.75
11
28.25
21
28.25
0
LINE
8
0
10
28.25
20
28.25
11
9.75
21
28.25
0
LINE
8
0
10
9.75
20
28.25
11
9.75
21
9.75
0
LINE
8
0
10
9.75
20
28.75
11
28.25
21
28.75
0
LINE
8
0
10
28.25
20
28.75
11
28.25
21
47.25
0
LINE
8
0
10
28.25
20
47.25
11
9.75
21
47.25
0
LINE
8
0
10
9.75
20
47.25
11
9.75
21
28.75
0
LINE
8
0
10
28.75
20
-5.25
11
47.25
21
-5.25
0
LINE
8
0
10
47.25
20
-5.25
11
47.25
21
13.25
0
LINE
8
0
10
47.25
20
13.25
11
28.75
21
13.25
0
LINE
8
0
10
28.75
20
13.25
11
28.75
21
-5.25
0
LINE
8
0
10
28.75
20
13.75
11
47.25
21
13.75
0
LINE
8
0
10
47.25
20
13.75
11
47.25
21
32.25
0
LINE
8
0
10
47.25
20
32.25
11
28.75
21
32.25
0
LINE
8
0
10
28.75
20
32.25
11
28.75
21
13.75
0
LINE
8
0
10
28.75
20
32.75
11
47.25
21
32.75
0
LINE
8
0
10
47.25
20
32.75
11
47.25
21
51.25
0
LINE
8
0
10
47.25
20
51.25
11
28.75
21
51.25
0
LINE
8
0
10
28.75
20
51.25
11
28.75
21
32.75
0
LINE
8
0
10
47.75
20
6.75
11
66.25
21
6.75
0
LINE
8
0
10
66.25
20
6.75
11
66.25
21
25.25
0
LINE
8
0
10
66.25
20
25.25
11
47.75
21
25.25
0
LINE
8
0
10
47.75
20
25.25
11
47.75
21
6.75
0
LINE
8
0
10
47.75
20
25.75
11
66.25
21
25.75
0
LINE
8
0
10
66.25
20
25.75
11
66.25
21
44.25
0
LINE
8
0
10
66.25
20
44.25
11
47.75
21
44.25
0
LINE
8
0
10
47.75
20
44.25
11
47.75
21
25.75
0
LINE
8
0
10
47.75
20
44.75
11
66.25
21
44.75
0
LINE
8
0
10
66.25
20
44.75
11
66.25
21
63.25
0
LINE
8
0
10
66.25
20
63.25
11
47.75
21
63.25
0
LINE
8
0
10
47.75
20
63.25
11
47.75
21
44.75
0
LINE
8
0
10
66.75
20
11.75
11
85.25
21
11.75
0
LINE
8
0
10
85.25
20
11.75
11
85.25
21
30.25
0
LINE
8
0
10
85.25
20
30.25
11
66.75
21
30.25
0
LINE
8
0
10
66.75
20
30.25
11
66.75
21
11.75
0
LINE
8
0
10
66.75
20
30.75
11
85.25
21
30.75
0
LINE
8
0
10
85.25
20
30.75
11
85.25
21
49.25
0
LINE
8
0
10
85.25
20
49.25
11
66.75
21
49.25
0
LINE
8
0
10
66.75
20
49.25
11
66.75
21
30.75
0
LINE
8
0
10
66.75
20
49.75
11
85.25
21
49.75
0
LINE
8
0
10
85.25
20
49.75
11
85.25
21
68.25
0
LINE
8
0
10
85.25
20
68.25
11
66.75
21
68.25
0
LINE
8
0
10
66.75
20
68.25
11
66.75
21
49.75
0
LINE
8
0
10
85.75
20
5.75
11
104.25
21
5.75
0
LINE
8
0
10
104.25
20
5.75
11
104.25
21
24.25
0
LINE
8
0
10
104.25
20
24.25
11
85.75
21
24.25
0
LINE
8
0
10
85.75
20
24.25
11
85.75
21
5.75
0
LINE
8
0
10
85.75
20
24.75
11
104.25
21
24.75
0
LINE
8
0
10
104.25
20
24.75
11
104.25
21
43.25
0
LINE
8
0
10
104.25
20
43.25
11
85.75
21
43.25
0
LINE
8
0
10
85.75
20
43.25
11
85.75
21
24.75
0
LINE
8
0
10
85.75
20
43.75
11
104.25
21
43.75
0
LINE
8
0
10
104.25
20
43.75
11
104.25
21
62.25
0
LINE
8
0
10
104.25
20
62.25
11
85.75
21
62.25
0
LINE
8
0
10
85.75
20
62.25
11
85.75
21
43.75
0
LINE
8
0
10
104.75
20
24.75
11
123.25
21
24.75
0
LINE
8
0
10
123.25
20
24.75
11
123.25
21
43.25
0
LINE
8
0
10
123.25
20
43.25
11
104.75
21
43.25
0
LINE
8
0
10
104.75
20
43.25
11
104.75
21
24.75
0
LINE
8
0
10
104.75
20
43.75
11
123.25
21
43.75
0
LINE
8
0
10
123.25
20
43.75
11
123.25
21
62.25
0
LINE
8
0
10
123.25
20
62.25
11
104.75
21
62.25
0
LINE
8
0
10
104.75
20
62.25
11
104.75
21
43.75
0
LINE
8
0
10
319.75
20
-9.25
11
338.25
21
-9.25
0
LINE
8
0
10
338.25
20
-9.25
11
338.25
21
9.25
0
LINE
8
0
10
338.25
20
9.25
11
319.75
21
9.25
0
LINE
8
0
10
319.75
20
9.25
11
319.75
21
-9.25
0
LINE
8
0
10
319.75
20
9.75
11
338.25
21
9.75
0
LINE
8
0
10
338.25
20
9.75
11
338.25
21
28.25
0
LINE
8
0
10
338.25
20
28.25
11
319.75
21
28.25
0
LINE
8
0
10
319.75
20
28.25
11
319.75
21
9.75
0
LINE
8
0
10
319.75
20
28.75
11
338.25
21
28.75
0
LINE
8
0
10
338.25
20
28.75
11
338.25
21
47.25
0
LINE
8
0
10
338.25
20
47.25
11
319.75
21
47.25
0
LINE
8
0
10
319.75
20
47.25
11
319.75
21
28.75
0
LINE
8
0
10
300.75
20
-5.25
11
319.25
21
-5.25
0
LINE
8
0
10
319.25
20
-5.25
11
319.25
21
13.25
0
LINE
8
0
10
319.25
20
13.25
11
300.75
21
13.25
0
LINE
8
0
10
300.75
20
13.25
11
300.75
21
-5.25
0
LINE
8
0
10
300.75
20
13.75
11
319.25
21
13.75
0
LINE
8
0
10
319.25
20
13.75
11
319.25
21
32.25
0
LINE
8
0
10
319.25
20
32.25
11
300.75
21
32.25
0
LINE
8
0
10
300.75
20
32.25
11
300.75
21
13.75
0
LINE
8
0
10
300.75
20
32.75
11
319.25
21
32.75
0
LINE
8
0
10
319.25
20
32.75
11
319.25
21
51.25
0
LINE
8
0
10
319.25
20
51.25
11
300.75
21
51.25
0
LINE
8
0
10
300.75
20
51.25
11
300.75
21
32.75
0
LINE
8
0
10
281.75
20
6.75
11
300.25
21
6.75
0
LINE
8
0
10
300.25
20
6.75
11
300.25
21
25.25
0
LINE
8
0
10
300.25
20
25.25
11
281.75
21
25.25
0
LINE
8
0
10
281.75
20
25.25
11
281.75
21
6.75
0
LINE
8
0
10
281.75
20
25.75
11
300.25
21
25.75
0
LINE
8
0
10
300.25
20
25.75
11
300.25
21
44.25
0
LINE
8
0
10
300.25
20
44.25
11
281.75
21
44.25
0
LINE
8
0
10
281.75
20
44.25
11
281.75
21
25.75
0
LINE
8
0
10
281.75
20
44.75
11
300.25
21
44.75
0
LINE
8
0
10
300.25
20
44.75
11
300.25
21
63.25
0
LINE
8
0
10
300.25
20
63.25
11
281.75
21
63.25
0
LINE
8
0
10
281.75
20
63.25
11
281.75
21
44.75
0
LINE
8
0
10
262.75
20
11.75
11
281.25
21
11.75
0
LINE
8
0
10
281.25
20
11.75
11
281.25
21
30.25
0
LINE
8
0
10
281.25
20
30.25
11
262.75
21
30.25
0
LINE
8
0
10
262.75
20
30.25
11
262.75
21
11.75
0
LINE
8
0
10
262.75
20
30.75
11
281.25
21
30.75
0
LINE
8
0
10
281.25
20
30.75
11
281.25
21
49.25
0
LINE
8
0
10
281.25
20
49.25
11
262.75
21
49.25
0
LINE
8
0
10
262.75
20
49.25
11
262.75
21
30.75
0
LINE
8
0
10
262.75
20
49.75
11
281.25
21
49.75
0
LINE
8
0
10
281.25
20
49.75
11
281.25
21
68.25
0
LINE
8
0
10
281.25
20
68.25
11
262.75
21
68.25
0
LINE
8
0
10
262.75
20
68.25
11
262.75
21
49.75
0
LINE
8
0
10
243.75
20
5.75
11
262.25
21
5.75
0
LINE
8
0
10
262.25
20
5.75
11
262.25
21
24.25
0
LINE
8
0
10
262.25
20
24.25
11
243.75
21
24.25
0
LINE
8
0
10
243.75
20
24.25
11
243.75
21
5.75
0
LINE
8
0
10
243.75
20
24.75
11
262.25
21
24.75
0
LINE
8
0
10
262.25
20
24.75
11
262.25
21
43.25
0
LINE
8
0
10
262.25
20
43.25
11
243.75
21
43.25
0
LINE
8
0
10
243.75
20
43.25
11
243.75
21
24.75
0
LINE
8
0
10
243.75
20
43.75
11
262.25
21
43.75
0
LINE
8
0
10
262.25
20
43.75
11
262.25
21
62.25
0
LINE
8
0
10
262.25
20
62.25
11
243.75
21
62.25
0
LINE
8
0
10
243.75
20
62.25
11
243.75
21
43.75
0
LINE
8
0
10
224.75
20
24.75
11
243.25
21
24.75
0
LINE
8
0
10
243.25
20
24.75
11
243.25
21
43.25
0
LINE
8
0
10
243.25
20
43.25
11
224.75
21
43.25
0
LINE
8
0
10
224.75
20
43.25
11
224.75
21
24.75
0
LINE
8
0
10
224.75
20
43.75
11
243.25
21
43.75
0
LINE
8
0
10
243.25
20
43.75
11
243.25
21
62.25
0
LINE
8
0
10
243.25
20
62.25
11
224.75
21
62.25
0
LINE
8
0
10
224.75
20
62.25
11
224.75
21
43.75
0
LINE
8
0
10
110.3262716
20
-31.561553
11
130.1252615
21
-11.7625631
0
LINE
8
0
10
130.1252615
20
-11.7625631
11
117.043786
21
1.3189124
0
LINE
8
0
10
117.043786
20
1.3189124
11
97.2447961
21
-18.4800775
0
LINE
8
0
10
97.2447961
20
-18.4800775
11
110.3262716
21
-31.561553
0
LINE
8
0
10
123.7613005
20
-44.9965819
11
143.5602904
21
-25.197592
0
LINE
8
0
10
143.5602904
20
-25.197592
11
130.4788149
21
-12.1161165
0
LINE
8
0
10
130.4788149
20
-12.1161165
11
110.679825
21
-31.9151064
0
LINE
8
0
10
110.679825
20
-31.9151064
11
123.7613005
21
-44.9965819
0
LINE
8
0
10
137.1963293
20
-58.4316107
11
156.9953192
21
-38.6326208
0
LINE
8
0
10
156.9953192
20
-38.6326208
11
143.9138437
21
-25.5511453
0
LINE
8
0
10
143.9138437
20
-25.5511453
11
124.1148538
21
-45.3501352
0
LINE
8
0
10
124.1148538
20
-45.3501352
11
137.1963293
21
-58.4316107
0
LINE
8
0
10
217.8747385
20
-11.7625631
11
237.6737284
21
-31.561553
0
LINE
8
0
10
237.6737284
20
-31.561553
11
250.7552039
21
-18.4800775
0
LINE
8
0
10
250.7552039
20
-18.4800775
11
230.956214
21
1.3189124
0
LINE
8
0
10
230.956214
20
1.3189124
11
217.8747385
21
-11.7625631
0
LINE
8
0
10
204.4397096
20
-25.197592
11
224.2386995
21
-44.9965819
0
LINE
8
0
10
224.2386995
20
-44.9965819
11
237.320175
21
-31.9151064
0
LINE
8
0
10
237.320175
20
-31.9151064
11
217.5211851
21
-12.1161165
0
LINE
8
0
10
217.5211851
20
-12.1161165
11
204.4397096
21
-25.197592
0
LINE
8
0
10
191.0046808
20
-38.6326208
11
210.8036707
21
-58.4316107
0
LINE
8
0
10
210.8036707
20
-58.4316107
11
223.8851462
21
-45.3501352
0
LINE
8
0
10
223.8851462
20
-45.3501352
11
204.0861563
21
-25.5511453
0
LINE
8
0
10
204.0861563
20
-25.5511453
11
191.0046808
21
-38.6326208
0
CIRCLE
8
0
10
90
20
-5
40
10
0
CIRCLE
8
0
10
258
20
-5
40
10
0
ENDSEC
0
EOF