0
SECTION
2
HEADER
9
$INSUNITS
70
4
0
ENDSEC
0
SECTION
2
TABLES
0
TABLE
2
LTYPE
0
LTYPE
72
65
70
64
2
CONTINUOUS
3
______
73
0
40
0
0
ENDTAB
0
TABLE
2
LAYER
0
ENDTAB
0
ENDSEC
0
SECTION
2
ENTITIES
0
LINE
8
0
10
8.75
20
-15.25
11
92.2469517
21
-15.25
0
LINE
8
0
10
8.75
20
-15.25
11
8.75
21
48.25
0
LINE
8
0
10
8.75
20
48.25
11
27.75
21
48.25
0
LINE
8
0
10
27.75
20
52.25
11
46.75
21
52.25
0
LINE
8
0
10
27.75
20
48.25
11
27.75
21
52.25
0
LINE
8
0
10
46.75
20
64.25
11
65.75
21
64.25
0
LINE
8
0
10
46.75
20
52.25
11
46.75
21
64.25
0
LINE
8
0
10
65.75
20
69.25
11
86.25
21
69.25
0
LINE
8
0
10
86.25
20
69.25
11
86.25
21
63.25
0
LINE
8
0
10
65.75
20
64.25
11
65.75
21
69.25
0
LINE
8
0
10
86.25
20
63.25
11
124.25
21
63.25
0
LINE
8
0
10
124.25
20
44
11
124.25
21
63.25
0
LINE
8
0
10
92.2469517
20
-15.25
11
137.0195526
21
-60.0226009
0
LINE
8
0
10
145.5
20
-25.3695347
11
158.5863094
21
-38.4558441
0
LINE
8
0
10
137.0195526
20
-60.0226009
11
158.5863094
21
-38.4558441
0
LINE
8
0
10
339.25
20
-15.25
11
339.25
21
48.25
0
LINE
8
0
10
255.7530483
20
-15.25
11
339.25
21
-15.25
0
LINE
8
0
10
320.25
20
48.25
11
339.25
21
48.25
0
LINE
8
0
10
301.25
20
52.25
11
320.25
21
52.25
0
LINE
8
0
10
320.25
20
52.25
11
320.25
21
48.25
0
LINE
8
0
10
282.25
20
64.25
11
301.25
21
64.25
0
LINE
8
0
10
301.25
20
52.25
11
301.25
21
64.25
0
LINE
8
0
10
261.75
20
69.25
11
282.25
21
69.25
0
LINE
8
0
10
282.25
20
69.25
11
282.25
21
64.25
0
LINE
8
0
10
261.75
20
63.25
11
261.75
21
69.25
0
LINE
8
0
10
223.75
20
63.25
11
261.75
21
63.25
0
LINE
8
0
10
223.75
20
44
11
223.75
21
63.25
0
LINE
8
0
10
210.9804474
20
-60.0226009
11
255.7530483
21
-15.25
0
LINE
8
0
10
189.4136906
20
-38.4558441
11
210.9804474
21
-60.0226009
0
LINE
8
0
10
189.4136906
20
-38.4558441
11
202.5
21
-25.3695347
0
LINE
8
0
10
145.5
20
-25.3695347
11
145.5
21
44
0
LINE
8
0
10
145.5
20
44
11
124.25
21
44
0
LINE
8
0
10
223.75
20
44
11
202.5
21
44
0
LINE
8
0
10
202.5
20
44
11
202.5
21
-25.3695347
0
ENDSEC
0
EOF