%TF.GenerationSoftware,KiCad,Pcbnew,(6.0.7)*%
%TF.CreationDate,2022-08-26T13:32:48+02:00*%
%TF.ProjectId,lenz03_wired,6c656e7a-3033-45f7-9769-7265642e6b69,v1.0.0*%
%TF.SameCoordinates,Original*%
%TF.FileFunction,Copper,L1,Top*%
%TF.FilePolarity,Positive*%
%FSLAX46Y46*%
G04 Gerber Fmt 4.6, Leading zero omitted, Abs format (unit mm)*
G04 Created by KiCad (PCBNEW (6.0.7)) date 2022-08-26 13:32:48*
%MOMM*%
%LPD*%
G01*
G04 APERTURE LIST*
%TA.AperFunction,ComponentPad*%
%ADD10C,1.905000*%
%TD*%
%TA.AperFunction,SMDPad,CuDef*%
%ADD11R,0.900000X1.200000*%
%TD*%
%TA.AperFunction,ComponentPad*%
%ADD12R,1.778000X1.778000*%
%TD*%
%TA.AperFunction,SMDPad,CuDef*%
%ADD13R,1.200000X0.900000*%
%TD*%
%TA.AperFunction,SMDPad,CuDef*%
%ADD14R,0.900000X1.700000*%
%TD*%
%TA.AperFunction,ComponentPad*%
%ADD15O,1.600000X2.200000*%
%TD*%
%TA.AperFunction,ComponentPad*%
%ADD16R,1.752600X1.752600*%
%TD*%
%TA.AperFunction,ComponentPad*%
%ADD17C,1.752600*%
%TD*%
%TA.AperFunction,SMDPad,CuDef*%
%ADD18R,1.700000X0.900000*%
%TD*%
%TA.AperFunction,ComponentPad*%
%ADD19R,3.200000X2.000000*%
%TD*%
%TA.AperFunction,ComponentPad*%
%ADD20C,1.500000*%
%TD*%
%TA.AperFunction,ComponentPad*%
%ADD21R,2.000000X2.000000*%
%TD*%
%TA.AperFunction,ComponentPad*%
%ADD22C,2.000000*%
%TD*%
%TA.AperFunction,ComponentPad*%
%ADD23O,2.200000X1.600000*%
%TD*%
%TA.AperFunction,ComponentPad*%
%ADD24R,2.000000X3.200000*%
%TD*%
%TA.AperFunction,ViaPad*%
%ADD25C,0.800000*%
%TD*%
%TA.AperFunction,Conductor*%
%ADD26C,0.250000*%
%TD*%
G04 APERTURE END LIST*
D10*
%TO.P,D26,1*%
%TO.N,mirror_ring_home*%
X44851000Y-138712000D03*
D11*
%TO.N,P3*%
X50311000Y-138712000D03*
D12*
%TO.P,D26,2*%
X52471000Y-138712000D03*
D11*
%TO.N,mirror_ring_home*%
X47011000Y-138712000D03*
%TD*%
D10*
%TO.P,D1,1*%
%TO.N,prepinky_bottom*%
X31010000Y-80227000D03*
D13*
%TO.N,P19*%
X31010000Y-85687000D03*
%TO.P,D1,2*%
%TO.N,prepinky_bottom*%
X31010000Y-82387000D03*
D12*
%TO.N,P19*%
X31010000Y-87847000D03*
%TD*%
D13*
%TO.P,D12,1*%
%TO.N,P21*%
X88010000Y-26687000D03*
D10*
%TO.N,middle_top*%
X88010000Y-21227000D03*
D13*
%TO.P,D12,2*%
X88010000Y-23387000D03*
D12*
%TO.N,P21*%
X88010000Y-28847000D03*
%TD*%
D10*
%TO.P,D17,1*%
%TO.N,postindex_top*%
X126010000Y-27227000D03*
D13*
%TO.N,P21*%
X126010000Y-32687000D03*
%TO.P,D17,2*%
%TO.N,postindex_top*%
X126010000Y-29387000D03*
D12*
%TO.N,P21*%
X126010000Y-34847000D03*
%TD*%
D11*
%TO.P,D19,1*%
%TO.N,P4*%
X85311000Y-100712000D03*
D10*
%TO.N,mirror_prepinky_bottom*%
X79851000Y-100712000D03*
D11*
%TO.P,D19,2*%
X82011000Y-100712000D03*
D12*
%TO.N,P4*%
X87471000Y-100712000D03*
%TD*%
D14*
%TO.P,,1*%
%TO.N,RST*%
X118010000Y-63337000D03*
%TO.P,,2*%
%TO.N,GND*%
X118010000Y-66737000D03*
%TD*%
D11*
%TO.P,D32,1*%
%TO.N,P3*%
X51311000Y-176712000D03*
D10*
%TO.N,mirror_index_home*%
X45851000Y-176712000D03*
D11*
%TO.P,D32,2*%
X48011000Y-176712000D03*
D12*
%TO.N,P3*%
X53471000Y-176712000D03*
%TD*%
D13*
%TO.P,D3,1*%
%TO.N,P21*%
X31010000Y-47687000D03*
D10*
%TO.N,prepinky_top*%
X31010000Y-42227000D03*
D12*
%TO.P,D3,2*%
%TO.N,P21*%
X31010000Y-49847000D03*
D13*
%TO.N,prepinky_top*%
X31010000Y-44387000D03*
%TD*%
D10*
%TO.P,D10,1*%
%TO.N,middle_bottom*%
X88010000Y-59227000D03*
D13*
%TO.N,P19*%
X88010000Y-64687000D03*
D12*
%TO.P,D10,2*%
X88010000Y-66847000D03*
D13*
%TO.N,middle_bottom*%
X88010000Y-61387000D03*
%TD*%
D10*
%TO.P,D11,1*%
%TO.N,middle_home*%
X88010000Y-40227000D03*
D13*
%TO.N,P20*%
X88010000Y-45687000D03*
%TO.P,D11,2*%
%TO.N,middle_home*%
X88010000Y-42387000D03*
D12*
%TO.N,P20*%
X88010000Y-47847000D03*
%TD*%
D15*
%TO.P,REF\u002A\u002A,1*%
%TO.N,VCC*%
X82661000Y-222412000D03*
%TO.P,REF\u002A\u002A,2*%
%TO.N,P21*%
X78061000Y-223512000D03*
%TO.P,REF\u002A\u002A,3*%
%TO.N,P20*%
X78061000Y-227512000D03*
%TO.P,REF\u002A\u002A,4*%
%TO.N,GND*%
X78061000Y-230512000D03*
%TD*%
D16*
%TO.P,MCU1,1*%
%TO.N,RAW*%
X130890000Y-44067000D03*
D17*
%TO.P,MCU1,2*%
%TO.N,GND*%
X130890000Y-46607000D03*
%TO.P,MCU1,3*%
%TO.N,RST*%
X130890000Y-49147000D03*
%TO.P,MCU1,4*%
%TO.N,VCC*%
X130890000Y-51687000D03*
%TO.P,MCU1,5*%
%TO.N,P21*%
X130890000Y-54227000D03*
%TO.P,MCU1,6*%
%TO.N,P20*%
X130890000Y-56767000D03*
%TO.P,MCU1,7*%
%TO.N,P19*%
X130890000Y-59307000D03*
%TO.P,MCU1,8*%
%TO.N,P18*%
X130890000Y-61847000D03*
%TO.P,MCU1,9*%
%TO.N,P15*%
X130890000Y-64387000D03*
%TO.P,MCU1,10*%
%TO.N,P14*%
X130890000Y-66927000D03*
%TO.P,MCU1,11*%
%TO.N,P16*%
X130890000Y-69467000D03*
%TO.P,MCU1,12*%
%TO.N,P10*%
X130890000Y-72007000D03*
%TO.P,MCU1,13*%
%TO.N,P1*%
X146130000Y-44067000D03*
%TO.P,MCU1,14*%
%TO.N,P0*%
X146130000Y-46607000D03*
%TO.P,MCU1,15*%
%TO.N,GND*%
X146130000Y-49147000D03*
%TO.P,MCU1,16*%
X146130000Y-51687000D03*
%TO.P,MCU1,17*%
%TO.N,P2*%
X146130000Y-54227000D03*
%TO.P,MCU1,18*%
%TO.N,P3*%
X146130000Y-56767000D03*
%TO.P,MCU1,19*%
%TO.N,P4*%
X146130000Y-59307000D03*
%TO.P,MCU1,20*%
%TO.N,P5*%
X146130000Y-61847000D03*
%TO.P,MCU1,21*%
%TO.N,P6*%
X146130000Y-64387000D03*
%TO.P,MCU1,22*%
%TO.N,P7*%
X146130000Y-66927000D03*
%TO.P,MCU1,23*%
%TO.N,P8*%
X146130000Y-69467000D03*
%TO.P,MCU1,24*%
%TO.N,P9*%
X146130000Y-72007000D03*
%TD*%
D13*
%TO.P,D18,1*%
%TO.N,P19*%
X84010000Y-75387000D03*
D10*
%TO.N,near_home*%
X84010000Y-80847000D03*
D13*
%TO.P,D18,2*%
X84010000Y-78687000D03*
D12*
%TO.N,P19*%
X84010000Y-73227000D03*
%TD*%
D10*
%TO.P,D15,1*%
%TO.N,index_top*%
X107010000Y-27227000D03*
D13*
%TO.N,P21*%
X107010000Y-32687000D03*
%TO.P,D15,2*%
%TO.N,index_top*%
X107010000Y-29387000D03*
D12*
%TO.N,P21*%
X107010000Y-34847000D03*
%TD*%
D18*
%TO.P,,1*%
%TO.N,RST*%
X62961000Y-203712000D03*
%TO.P,,2*%
%TO.N,GND*%
X66361000Y-203712000D03*
%TD*%
D10*
%TO.P,D23,1*%
%TO.N,mirror_pinky_home*%
X56851000Y-119712000D03*
D11*
%TO.N,P3*%
X62311000Y-119712000D03*
%TO.P,D23,2*%
%TO.N,mirror_pinky_home*%
X59011000Y-119712000D03*
D12*
%TO.N,P3*%
X64471000Y-119712000D03*
%TD*%
D10*
%TO.P,D16,1*%
%TO.N,postindex_home*%
X126010000Y-46227000D03*
D13*
%TO.N,P20*%
X126010000Y-51687000D03*
%TO.P,D16,2*%
%TO.N,postindex_home*%
X126010000Y-48387000D03*
D12*
%TO.N,P20*%
X126010000Y-53847000D03*
%TD*%
D10*
%TO.P,D24,1*%
%TO.N,mirror_pinky_top*%
X37851000Y-119712000D03*
D11*
%TO.N,P2*%
X43311000Y-119712000D03*
%TO.P,D24,2*%
%TO.N,mirror_pinky_top*%
X40011000Y-119712000D03*
D12*
%TO.N,P2*%
X45471000Y-119712000D03*
%TD*%
D11*
%TO.P,D22,1*%
%TO.N,P4*%
X81311000Y-119712000D03*
D10*
%TO.N,mirror_pinky_bottom*%
X75851000Y-119712000D03*
D11*
%TO.P,D22,2*%
X78011000Y-119712000D03*
D12*
%TO.N,P4*%
X83471000Y-119712000D03*
%TD*%
D10*
%TO.P,D20,1*%
%TO.N,mirror_prepinky_home*%
X60851000Y-100712000D03*
D11*
%TO.N,P3*%
X66311000Y-100712000D03*
D12*
%TO.P,D20,2*%
X68471000Y-100712000D03*
D11*
%TO.N,mirror_prepinky_home*%
X63011000Y-100712000D03*
%TD*%
D19*
%TO.P,ROT1,*%
%TO.N,*%
X94130000Y-92677000D03*
X94130000Y-81477000D03*
D20*
%TO.P,ROT1,1*%
%TO.N,P18*%
X87130000Y-89577000D03*
%TO.P,ROT1,2*%
%TO.N,near_home*%
X87130000Y-84577000D03*
D21*
%TO.P,ROT1,A*%
%TO.N,P5*%
X101630000Y-89577000D03*
D22*
%TO.P,ROT1,B*%
%TO.N,GND*%
X101630000Y-84577000D03*
%TO.P,ROT1,C*%
%TO.N,P6*%
X101630000Y-87077000D03*
%TD*%
D13*
%TO.P,D9,1*%
%TO.N,P21*%
X69010000Y-31687000D03*
D10*
%TO.N,ring_top*%
X69010000Y-26227000D03*
D12*
%TO.P,D9,2*%
%TO.N,P21*%
X69010000Y-33847000D03*
D13*
%TO.N,ring_top*%
X69010000Y-28387000D03*
%TD*%
D10*
%TO.P,D8,1*%
%TO.N,ring_home*%
X69010000Y-45227000D03*
D13*
%TO.N,P20*%
X69010000Y-50687000D03*
D12*
%TO.P,D8,2*%
X69010000Y-52847000D03*
D13*
%TO.N,ring_home*%
X69010000Y-47387000D03*
%TD*%
D11*
%TO.P,D25,1*%
%TO.N,P4*%
X69311000Y-138712000D03*
D10*
%TO.N,mirror_ring_bottom*%
X63851000Y-138712000D03*
D11*
%TO.P,D25,2*%
X66011000Y-138712000D03*
D12*
%TO.N,P4*%
X71471000Y-138712000D03*
%TD*%
D13*
%TO.P,D7,1*%
%TO.N,P19*%
X69010000Y-69687000D03*
D10*
%TO.N,ring_bottom*%
X69010000Y-64227000D03*
D13*
%TO.P,D7,2*%
X69010000Y-66387000D03*
D12*
%TO.N,P19*%
X69010000Y-71847000D03*
%TD*%
D10*
%TO.P,D27,1*%
%TO.N,mirror_ring_top*%
X25851000Y-138712000D03*
D11*
%TO.N,P2*%
X31311000Y-138712000D03*
%TO.P,D27,2*%
%TO.N,mirror_ring_top*%
X28011000Y-138712000D03*
D12*
%TO.N,P2*%
X33471000Y-138712000D03*
%TD*%
D10*
%TO.P,D13,1*%
%TO.N,index_bottom*%
X107010000Y-65227000D03*
D13*
%TO.N,P19*%
X107010000Y-70687000D03*
%TO.P,D13,2*%
%TO.N,index_bottom*%
X107010000Y-67387000D03*
D12*
%TO.N,P19*%
X107010000Y-72847000D03*
%TD*%
D11*
%TO.P,D21,1*%
%TO.N,P2*%
X47311000Y-100712000D03*
D10*
%TO.N,mirror_prepinky_top*%
X41851000Y-100712000D03*
D11*
%TO.P,D21,2*%
X44011000Y-100712000D03*
D12*
%TO.N,P2*%
X49471000Y-100712000D03*
%TD*%
D13*
%TO.P,D5,1*%
%TO.N,P20*%
X50010000Y-62687000D03*
D10*
%TO.N,pinky_home*%
X50010000Y-57227000D03*
D12*
%TO.P,D5,2*%
%TO.N,P20*%
X50010000Y-64847000D03*
D13*
%TO.N,pinky_home*%
X50010000Y-59387000D03*
%TD*%
D11*
%TO.P,D33,1*%
%TO.N,P2*%
X32311000Y-176712000D03*
D10*
%TO.N,mirror_index_top*%
X26851000Y-176712000D03*
D12*
%TO.P,D33,2*%
%TO.N,P2*%
X34471000Y-176712000D03*
D11*
%TO.N,mirror_index_top*%
X29011000Y-176712000D03*
%TD*%
D10*
%TO.P,D30,1*%
%TO.N,mirror_middle_top*%
X20851000Y-157712000D03*
D11*
%TO.N,P2*%
X26311000Y-157712000D03*
D12*
%TO.P,D30,2*%
X28471000Y-157712000D03*
D11*
%TO.N,mirror_middle_top*%
X23011000Y-157712000D03*
%TD*%
D10*
%TO.P,D6,1*%
%TO.N,pinky_top*%
X50010000Y-38227000D03*
D13*
%TO.N,P21*%
X50010000Y-43687000D03*
%TO.P,D6,2*%
%TO.N,pinky_top*%
X50010000Y-40387000D03*
D12*
%TO.N,P21*%
X50010000Y-45847000D03*
%TD*%
D13*
%TO.P,D14,1*%
%TO.N,P20*%
X107010000Y-51687000D03*
D10*
%TO.N,index_home*%
X107010000Y-46227000D03*
D13*
%TO.P,D14,2*%
X107010000Y-48387000D03*
D12*
%TO.N,P20*%
X107010000Y-53847000D03*
%TD*%
D23*
%TO.P,REF\u002A\u002A,1*%
%TO.N,VCC*%
X136710000Y-78437000D03*
%TO.P,REF\u002A\u002A,2*%
%TO.N,P2*%
X137810000Y-83037000D03*
%TO.P,REF\u002A\u002A,3*%
%TO.N,P3*%
X141810000Y-83037000D03*
%TO.P,REF\u002A\u002A,4*%
%TO.N,GND*%
X144810000Y-83037000D03*
%TD*%
D11*
%TO.P,D35,1*%
%TO.N,P2*%
X32311000Y-195712000D03*
D10*
%TO.N,mirror_postindex_top*%
X26851000Y-195712000D03*
D11*
%TO.P,D35,2*%
X29011000Y-195712000D03*
D12*
%TO.N,P2*%
X34471000Y-195712000D03*
%TD*%
D10*
%TO.P,D28,1*%
%TO.N,mirror_middle_bottom*%
X58851000Y-157712000D03*
D11*
%TO.N,P4*%
X64311000Y-157712000D03*
%TO.P,D28,2*%
%TO.N,mirror_middle_bottom*%
X61011000Y-157712000D03*
D12*
%TO.N,P4*%
X66471000Y-157712000D03*
%TD*%
D16*
%TO.P,MCU2,1*%
%TO.N,RAW*%
X43691000Y-231832000D03*
D17*
%TO.P,MCU2,2*%
%TO.N,GND*%
X46231000Y-231832000D03*
%TO.P,MCU2,3*%
%TO.N,RST*%
X48771000Y-231832000D03*
%TO.P,MCU2,4*%
%TO.N,VCC*%
X51311000Y-231832000D03*
%TO.P,MCU2,5*%
%TO.N,P21*%
X53851000Y-231832000D03*
%TO.P,MCU2,6*%
%TO.N,P20*%
X56391000Y-231832000D03*
%TO.P,MCU2,7*%
%TO.N,P19*%
X58931000Y-231832000D03*
%TO.P,MCU2,8*%
%TO.N,P18*%
X61471000Y-231832000D03*
%TO.P,MCU2,9*%
%TO.N,P15*%
X64011000Y-231832000D03*
%TO.P,MCU2,10*%
%TO.N,P14*%
X66551000Y-231832000D03*
%TO.P,MCU2,11*%
%TO.N,P16*%
X69091000Y-231832000D03*
%TO.P,MCU2,12*%
%TO.N,P10*%
X71631000Y-231832000D03*
%TO.P,MCU2,13*%
%TO.N,P1*%
X43691000Y-216592000D03*
%TO.P,MCU2,14*%
%TO.N,P0*%
X46231000Y-216592000D03*
%TO.P,MCU2,15*%
%TO.N,GND*%
X48771000Y-216592000D03*
%TO.P,MCU2,16*%
X51311000Y-216592000D03*
%TO.P,MCU2,17*%
%TO.N,P2*%
X53851000Y-216592000D03*
%TO.P,MCU2,18*%
%TO.N,P3*%
X56391000Y-216592000D03*
%TO.P,MCU2,19*%
%TO.N,P4*%
X58931000Y-216592000D03*
%TO.P,MCU2,20*%
%TO.N,P5*%
X61471000Y-216592000D03*
%TO.P,MCU2,21*%
%TO.N,P6*%
X64011000Y-216592000D03*
%TO.P,MCU2,22*%
%TO.N,P7*%
X66551000Y-216592000D03*
%TO.P,MCU2,23*%
%TO.N,P8*%
X69091000Y-216592000D03*
%TO.P,MCU2,24*%
%TO.N,P9*%
X71631000Y-216592000D03*
%TD*%
D10*
%TO.P,D31,1*%
%TO.N,mirror_index_bottom*%
X64851000Y-176712000D03*
D11*
%TO.N,P4*%
X70311000Y-176712000D03*
%TO.P,D31,2*%
%TO.N,mirror_index_bottom*%
X67011000Y-176712000D03*
D12*
%TO.N,P4*%
X72471000Y-176712000D03*
%TD*%
D13*
%TO.P,D4,1*%
%TO.N,P19*%
X50010000Y-81687000D03*
D10*
%TO.N,pinky_bottom*%
X50010000Y-76227000D03*
D13*
%TO.P,D4,2*%
X50010000Y-78387000D03*
D12*
%TO.N,P19*%
X50010000Y-83847000D03*
%TD*%
D24*
%TO.P,ROT2,*%
%TO.N,*%
X81021000Y-179832000D03*
X92221000Y-179832000D03*
D20*
%TO.P,ROT2,1*%
%TO.N,P5*%
X84121000Y-172832000D03*
%TO.P,ROT2,2*%
%TO.N,mirror_near_home*%
X89121000Y-172832000D03*
D21*
%TO.P,ROT2,A*%
%TO.N,P18*%
X84121000Y-187332000D03*
D22*
%TO.P,ROT2,B*%
%TO.N,GND*%
X89121000Y-187332000D03*
%TO.P,ROT2,C*%
%TO.N,P15*%
X86621000Y-187332000D03*
%TD*%
D10*
%TO.P,D34,1*%
%TO.N,mirror_postindex_home*%
X45851000Y-195712000D03*
D11*
%TO.N,P3*%
X51311000Y-195712000D03*
%TO.P,D34,2*%
%TO.N,mirror_postindex_home*%
X48011000Y-195712000D03*
D12*
%TO.N,P3*%
X53471000Y-195712000D03*
%TD*%
D10*
%TO.P,D29,1*%
%TO.N,mirror_middle_home*%
X39851000Y-157712000D03*
D11*
%TO.N,P3*%
X45311000Y-157712000D03*
%TO.P,D29,2*%
%TO.N,mirror_middle_home*%
X42011000Y-157712000D03*
D12*
%TO.N,P3*%
X47471000Y-157712000D03*
%TD*%
D10*
%TO.P,D36,1*%
%TO.N,mirror_near_home*%
X80471000Y-169712000D03*
D11*
%TO.N,P4*%
X75011000Y-169712000D03*
%TO.P,D36,2*%
%TO.N,mirror_near_home*%
X78311000Y-169712000D03*
D12*
%TO.N,P4*%
X72851000Y-169712000D03*
%TD*%
D10*
%TO.P,D2,1*%
%TO.N,prepinky_home*%
X31010000Y-61227000D03*
D13*
%TO.N,P20*%
X31010000Y-66687000D03*
%TO.P,D2,2*%
%TO.N,prepinky_home*%
X31010000Y-63387000D03*
D12*
%TO.N,P20*%
X31010000Y-68847000D03*
%TD*%
D25*
%TO.N,RST*%
X61087000Y-204159000D03*
X67564000Y-209239000D03*
%TD*%
D26*
%TO.N,P4*%
X72851000Y-169712000D02*
X72851000Y-176332000D01*
X72851000Y-169712000D02*
X75011000Y-169712000D01*
X85311000Y-100712000D02*
X87471000Y-100712000D01*
X72851000Y-176332000D02*
X72471000Y-176712000D01*
X66471000Y-157712000D02*
X64311000Y-157712000D01*
X71471000Y-138712000D02*
X71471000Y-152712000D01*
X72471000Y-176712000D02*
X70311000Y-176712000D01*
X87471000Y-115712000D02*
X83471000Y-119712000D01*
X58931000Y-201489000D02*
X58931000Y-216592000D01*
X71471000Y-152712000D02*
X66471000Y-157712000D01*
X72471000Y-187949000D02*
X58931000Y-201489000D01*
X83471000Y-130449371D02*
X75208371Y-138712000D01*
X81311000Y-119712000D02*
X83471000Y-119712000D01*
X66471000Y-157712000D02*
X66471000Y-163332000D01*
X72471000Y-176712000D02*
X72471000Y-187949000D01*
X87471000Y-100712000D02*
X87471000Y-115712000D01*
X66471000Y-163332000D02*
X72851000Y-169712000D01*
X83471000Y-119712000D02*
X83471000Y-130449371D01*
X71471000Y-138712000D02*
X69311000Y-138712000D01*
X75208371Y-138712000D02*
X71471000Y-138712000D01*
%TO.N,prepinky_bottom*%
X31010000Y-82387000D02*
X31010000Y-80227000D01*
%TO.N,P19*%
X84010000Y-73227000D02*
X84010000Y-75387000D01*
X107010000Y-72847000D02*
X107307000Y-72847000D01*
X31010000Y-87847000D02*
X46010000Y-87847000D01*
X109039000Y-67813000D02*
X117545000Y-59307000D01*
X109039000Y-71115000D02*
X109039000Y-67813000D01*
X94010000Y-72847000D02*
X107010000Y-72847000D01*
X88010000Y-66847000D02*
X94010000Y-72847000D01*
X117545000Y-59307000D02*
X130890000Y-59307000D01*
X46010000Y-87847000D02*
X50010000Y-83847000D01*
X84010000Y-73227000D02*
X84010000Y-70847000D01*
X69010000Y-71847000D02*
X69010000Y-69687000D01*
X107010000Y-72847000D02*
X107010000Y-70687000D01*
X84010000Y-70847000D02*
X88010000Y-66847000D01*
X50010000Y-83847000D02*
X50010000Y-81687000D01*
X82630000Y-71847000D02*
X84010000Y-73227000D01*
X88010000Y-64687000D02*
X88010000Y-66847000D01*
X57010000Y-83847000D02*
X69010000Y-71847000D01*
X107307000Y-72847000D02*
X109039000Y-71115000D01*
X31010000Y-87847000D02*
X31010000Y-85687000D01*
X50010000Y-83847000D02*
X57010000Y-83847000D01*
X69010000Y-71847000D02*
X82630000Y-71847000D01*
%TO.N,prepinky_home*%
X31010000Y-63387000D02*
X31010000Y-61227000D01*
%TO.N,P20*%
X75761000Y-228348396D02*
X75497396Y-228612000D01*
X69010000Y-52847000D02*
X83010000Y-52847000D01*
X83010000Y-52847000D02*
X88010000Y-47847000D01*
X94010000Y-53847000D02*
X107010000Y-53847000D01*
X127970000Y-53847000D02*
X130890000Y-56767000D01*
X88010000Y-47847000D02*
X88010000Y-45687000D01*
X59611000Y-228612000D02*
X56391000Y-231832000D01*
X75761000Y-227781000D02*
X75761000Y-228348396D01*
X126010000Y-53847000D02*
X127970000Y-53847000D01*
X75497396Y-228612000D02*
X59611000Y-228612000D01*
X126010000Y-53847000D02*
X126010000Y-51687000D01*
X31010000Y-68847000D02*
X31010000Y-66687000D01*
X50010000Y-64847000D02*
X50010000Y-64612000D01*
X88010000Y-47847000D02*
X94010000Y-53847000D01*
X69010000Y-52847000D02*
X69010000Y-50687000D01*
X31010000Y-68847000D02*
X46010000Y-68847000D01*
X107010000Y-53847000D02*
X126010000Y-53847000D01*
X78061000Y-227512000D02*
X76030000Y-227512000D01*
X61775000Y-52847000D02*
X69010000Y-52847000D01*
X50010000Y-64847000D02*
X50010000Y-62687000D01*
X76030000Y-227512000D02*
X75761000Y-227781000D01*
X107010000Y-53847000D02*
X107010000Y-51687000D01*
X50010000Y-64612000D02*
X61775000Y-52847000D01*
X46010000Y-68847000D02*
X50010000Y-64847000D01*
%TO.N,prepinky_top*%
X31010000Y-44387000D02*
X31010000Y-42227000D01*
%TO.N,P21*%
X76151000Y-223512000D02*
X78061000Y-223512000D01*
X128597000Y-40635000D02*
X128597000Y-52192000D01*
X126010000Y-34847000D02*
X126010000Y-32687000D01*
X57521000Y-228162000D02*
X75311000Y-228162000D01*
X51757000Y-45847000D02*
X63757000Y-33847000D01*
X69010000Y-33847000D02*
X83010000Y-33847000D01*
X88010000Y-28847000D02*
X88010000Y-26687000D01*
X126010000Y-38048000D02*
X128597000Y-40635000D01*
X107010000Y-34847000D02*
X107010000Y-32687000D01*
X50010000Y-45847000D02*
X51757000Y-45847000D01*
X94010000Y-34847000D02*
X107010000Y-34847000D01*
X69010000Y-33847000D02*
X69010000Y-31687000D01*
X31010000Y-49847000D02*
X46010000Y-49847000D01*
X63757000Y-33847000D02*
X69010000Y-33847000D01*
X107010000Y-34847000D02*
X126010000Y-34847000D01*
X46010000Y-49847000D02*
X50010000Y-45847000D01*
X75311000Y-228162000D02*
X75311000Y-224352000D01*
X31010000Y-49847000D02*
X31010000Y-47687000D01*
X128597000Y-52192000D02*
X129867000Y-53462000D01*
X83010000Y-33847000D02*
X88010000Y-28847000D01*
X53851000Y-231832000D02*
X57521000Y-228162000D01*
X88010000Y-28847000D02*
X94010000Y-34847000D01*
X126010000Y-34847000D02*
X126010000Y-38048000D01*
X75311000Y-224352000D02*
X76151000Y-223512000D01*
X50010000Y-45847000D02*
X50010000Y-43687000D01*
%TO.N,pinky_bottom*%
X50010000Y-78387000D02*
X50010000Y-76227000D01*
%TO.N,pinky_home*%
X50010000Y-59387000D02*
X50010000Y-57227000D01*
%TO.N,pinky_top*%
X50010000Y-40387000D02*
X50010000Y-38227000D01*
%TO.N,ring_bottom*%
X69010000Y-66387000D02*
X69010000Y-64227000D01*
%TO.N,ring_home*%
X69010000Y-47387000D02*
X69010000Y-45227000D01*
%TO.N,ring_top*%
X69010000Y-28387000D02*
X69010000Y-26227000D01*
%TO.N,middle_bottom*%
X88010000Y-61387000D02*
X88010000Y-59227000D01*
%TO.N,middle_home*%
X88010000Y-42387000D02*
X88010000Y-40227000D01*
%TO.N,middle_top*%
X88010000Y-23387000D02*
X88010000Y-21227000D01*
%TO.N,index_bottom*%
X107010000Y-67387000D02*
X107010000Y-65227000D01*
%TO.N,index_home*%
X107010000Y-48387000D02*
X107010000Y-46227000D01*
%TO.N,index_top*%
X107010000Y-29387000D02*
X107010000Y-27227000D01*
%TO.N,P18*%
X85290000Y-94991000D02*
X102308000Y-94991000D01*
X123517000Y-73782000D02*
X123517000Y-64384000D01*
X87130000Y-89577000D02*
X85116000Y-89577000D01*
X84020000Y-90673000D02*
X84020000Y-93721000D01*
X102308000Y-94991000D02*
X123517000Y-73782000D01*
X85116000Y-89577000D02*
X84020000Y-90673000D01*
X123517000Y-64384000D02*
X126054000Y-61847000D01*
X126054000Y-61847000D02*
X130890000Y-61847000D01*
X84020000Y-93721000D02*
X85290000Y-94991000D01*
%TO.N,postindex_home*%
X126010000Y-48387000D02*
X126010000Y-46227000D01*
%TO.N,postindex_top*%
X126010000Y-29387000D02*
X126010000Y-27227000D01*
%TO.N,near_home*%
X84010000Y-78687000D02*
X84010000Y-80847000D01*
%TO.N,P5*%
X86614000Y-170250000D02*
X93599000Y-170250000D01*
X95885000Y-186633000D02*
X87757000Y-194761000D01*
X95885000Y-172536000D02*
X95885000Y-186633000D01*
X93599000Y-170250000D02*
X95885000Y-172536000D01*
X86614000Y-170339000D02*
X86614000Y-170250000D01*
X84121000Y-172832000D02*
X86614000Y-170339000D01*
X87757000Y-194761000D02*
X80137000Y-194761000D01*
X80137000Y-194761000D02*
X61471000Y-213427000D01*
X61471000Y-213427000D02*
X61471000Y-216592000D01*
%TO.N,GND*%
X53483000Y-218764000D02*
X51311000Y-216592000D01*
X100281000Y-79168000D02*
X101630000Y-80517000D01*
X149310000Y-79866000D02*
X149310000Y-50934000D01*
X123049698Y-74885698D02*
X102494396Y-95441000D01*
X83570000Y-93907396D02*
X83570000Y-90486604D01*
X133047000Y-48764000D02*
X133047000Y-71548895D01*
X85883000Y-190570000D02*
X79502000Y-190570000D01*
X130890000Y-46607000D02*
X133047000Y-48764000D01*
X101630000Y-80517000D02*
X101630000Y-84577000D01*
X89121000Y-187332000D02*
X85883000Y-190570000D01*
X88470000Y-79168000D02*
X100281000Y-79168000D01*
X60269700Y-209803300D02*
X60269700Y-217676300D01*
X144810000Y-83037000D02*
X146139000Y-83037000D01*
X101630000Y-84577000D02*
X101630000Y-83117000D01*
X85803000Y-81835000D02*
X88470000Y-79168000D01*
X102494396Y-95441000D02*
X85103604Y-95441000D01*
X66361000Y-203712000D02*
X60269700Y-209803300D01*
X133047000Y-71548895D02*
X129710197Y-74885698D01*
X59182000Y-218764000D02*
X53483000Y-218764000D01*
X66361000Y-203711000D02*
X66361000Y-203712000D01*
X85803000Y-88253604D02*
X85803000Y-81835000D01*
X79502000Y-190570000D02*
X66361000Y-203711000D01*
X146139000Y-83037000D02*
X149310000Y-79866000D01*
X101630000Y-83117000D02*
X118010000Y-66737000D01*
X149310000Y-50934000D02*
X147523000Y-49147000D01*
X60269700Y-217676300D02*
X59182000Y-218764000D01*
X147523000Y-49147000D02*
X146130000Y-49147000D01*
X129710197Y-74885698D02*
X123049698Y-74885698D01*
X83570000Y-90486604D02*
X85803000Y-88253604D01*
X85103604Y-95441000D02*
X83570000Y-93907396D01*
%TO.N,mirror_prepinky_bottom*%
X79851000Y-100712000D02*
X82011000Y-100712000D01*
%TO.N,mirror_prepinky_home*%
X60851000Y-100712000D02*
X63011000Y-100712000D01*
%TO.N,P3*%
X56391000Y-198701000D02*
X56391000Y-216592000D01*
X145858000Y-78989000D02*
X148536000Y-78989000D01*
X55626000Y-197936000D02*
X56391000Y-198701000D01*
X64471000Y-130449371D02*
X56208371Y-138712000D01*
X52471000Y-152712000D02*
X47471000Y-157712000D01*
X68471000Y-100712000D02*
X68471000Y-115712000D01*
X141810000Y-83037000D02*
X145858000Y-78989000D01*
X64471000Y-119712000D02*
X64471000Y-130449371D01*
X66311000Y-100712000D02*
X68471000Y-100712000D01*
X47471000Y-157712000D02*
X47471000Y-170712000D01*
X148536000Y-78989000D02*
X148860000Y-78665000D01*
X47471000Y-170712000D02*
X53471000Y-176712000D01*
X53471000Y-195712000D02*
X55626000Y-197867000D01*
X68471000Y-115712000D02*
X64471000Y-119712000D01*
X55626000Y-197867000D02*
X55626000Y-197936000D01*
X148860000Y-78665000D02*
X148860000Y-57907000D01*
X51311000Y-176712000D02*
X53471000Y-176712000D01*
X62311000Y-119712000D02*
X64471000Y-119712000D01*
X47471000Y-157712000D02*
X45311000Y-157712000D01*
X56208371Y-138712000D02*
X52471000Y-138712000D01*
X147720000Y-56767000D02*
X146130000Y-56767000D01*
X53471000Y-195712000D02*
X51311000Y-195712000D01*
X52471000Y-138712000D02*
X52471000Y-152712000D01*
X148860000Y-57907000D02*
X147720000Y-56767000D01*
X50311000Y-138712000D02*
X52471000Y-138712000D01*
X53471000Y-176712000D02*
X53471000Y-195712000D01*
%TO.N,mirror_prepinky_top*%
X41851000Y-100712000D02*
X44011000Y-100712000D01*
%TO.N,P2*%
X31311000Y-138712000D02*
X33471000Y-138712000D01*
X32311000Y-195712000D02*
X34471000Y-195712000D01*
X50673000Y-213414000D02*
X53851000Y-216592000D01*
X33471000Y-152712000D02*
X28471000Y-157712000D01*
X32311000Y-176712000D02*
X34471000Y-176712000D01*
X34471000Y-176712000D02*
X34471000Y-195712000D01*
X34471000Y-205102000D02*
X42672000Y-213303000D01*
X50673000Y-213303000D02*
X50673000Y-213414000D01*
X137810000Y-83037000D02*
X139154000Y-83037000D01*
X45471000Y-119712000D02*
X45471000Y-130449371D01*
X34471000Y-195712000D02*
X34471000Y-205102000D01*
X49471000Y-115712000D02*
X45471000Y-119712000D01*
X49471000Y-100712000D02*
X49471000Y-115712000D01*
X47311000Y-100712000D02*
X49471000Y-100712000D01*
X144599000Y-55758000D02*
X146130000Y-54227000D01*
X144599000Y-77592000D02*
X144599000Y-55758000D01*
X28471000Y-157712000D02*
X28471000Y-170712000D01*
X42672000Y-213303000D02*
X50673000Y-213303000D01*
X43311000Y-119712000D02*
X45471000Y-119712000D01*
X28471000Y-170712000D02*
X34471000Y-176712000D01*
X139154000Y-83037000D02*
X144599000Y-77592000D01*
X26311000Y-157712000D02*
X28471000Y-157712000D01*
X33471000Y-138712000D02*
X33471000Y-152712000D01*
X45471000Y-130449371D02*
X37208371Y-138712000D01*
X37208371Y-138712000D02*
X33471000Y-138712000D01*
%TO.N,mirror_pinky_bottom*%
X78011000Y-119712000D02*
X75851000Y-119712000D01*
%TO.N,mirror_pinky_home*%
X56851000Y-119712000D02*
X59011000Y-119712000D01*
%TO.N,mirror_pinky_top*%
X37851000Y-119712000D02*
X40011000Y-119712000D01*
%TO.N,mirror_ring_bottom*%
X66011000Y-138712000D02*
X63851000Y-138712000D01*
%TO.N,mirror_ring_home*%
X47011000Y-138712000D02*
X44851000Y-138712000D01*
%TO.N,mirror_ring_top*%
X25851000Y-138712000D02*
X28011000Y-138712000D01*
%TO.N,mirror_middle_bottom*%
X61011000Y-157712000D02*
X58851000Y-157712000D01*
%TO.N,mirror_middle_home*%
X42011000Y-157712000D02*
X39851000Y-157712000D01*
%TO.N,mirror_middle_top*%
X20851000Y-157712000D02*
X23011000Y-157712000D01*
%TO.N,mirror_index_bottom*%
X67011000Y-176712000D02*
X64851000Y-176712000D01*
%TO.N,mirror_index_home*%
X48011000Y-176712000D02*
X45851000Y-176712000D01*
%TO.N,mirror_index_top*%
X26851000Y-176712000D02*
X29011000Y-176712000D01*
%TO.N,mirror_postindex_home*%
X48011000Y-195712000D02*
X45851000Y-195712000D01*
%TO.N,mirror_postindex_top*%
X26851000Y-195712000D02*
X29011000Y-195712000D01*
%TO.N,mirror_near_home*%
X78311000Y-169712000D02*
X80471000Y-169712000D01*
%TO.N,RST*%
X132091300Y-60184700D02*
X131650000Y-60626000D01*
X132091300Y-50348300D02*
X132091300Y-60184700D01*
X48771000Y-230445000D02*
X59436000Y-219780000D01*
X48771000Y-231832000D02*
X48771000Y-230445000D01*
X61534000Y-203712000D02*
X61087000Y-204159000D01*
X59981895Y-219780000D02*
X62809700Y-216952195D01*
X62809700Y-213993300D02*
X67564000Y-209239000D01*
X62809700Y-216952195D02*
X62809700Y-213993300D01*
X59436000Y-219780000D02*
X59981895Y-219780000D01*
X62961000Y-203712000D02*
X61534000Y-203712000D01*
X131650000Y-60626000D02*
X120721000Y-60626000D01*
X130890000Y-49147000D02*
X132091300Y-50348300D01*
X120721000Y-60626000D02*
X118010000Y-63337000D01*
%TO.N,VCC*%
X130121000Y-41397000D02*
X129105000Y-42413000D01*
X132661000Y-41397000D02*
X130121000Y-41397000D01*
X136710000Y-78212000D02*
X133550000Y-75052000D01*
X129105000Y-49902000D02*
X130890000Y-51687000D01*
X133550000Y-75052000D02*
X133550000Y-42286000D01*
X133550000Y-42286000D02*
X132661000Y-41397000D01*
X129105000Y-42413000D02*
X129105000Y-49902000D01*
X136710000Y-78437000D02*
X136710000Y-78212000D01*
%TD*%
M02*
