%TF.GenerationSoftware,KiCad,Pcbnew,(6.0.7)*%
%TF.CreationDate,2022-08-26T13:32:48+02:00*%
%TF.ProjectId,lenz03_wired,6c656e7a-3033-45f7-9769-7265642e6b69,v1.0.0*%
%TF.SameCoordinates,Original*%
%TF.FileFunction,Profile,NP*%
%FSLAX46Y46*%
G04 Gerber Fmt 4.6, Leading zero omitted, Abs format (unit mm)*
G04 Created by KiCad (PCBNEW (6.0.7)) date 2022-08-26 13:32:48*
%MOMM*%
%LPD*%
G01*
G04 APERTURE LIST*
%TA.AperFunction,Profile*%
%ADD10C,0.150000*%
%TD*%
G04 APERTURE END LIST*
D10*
X107616317Y-235797790D02*
G75*
G03*
X106202107Y-235212000I-1414217J-1414210D01*
G01*
X50760000Y-27787000D02*
X50760000Y-19787000D01*
X121531058Y-246884096D02*
X140269387Y-228145766D01*
X71760000Y-12787000D02*
X88260000Y-12787000D01*
X12760000Y-95287000D02*
X12760000Y-35787000D01*
X33760000Y-29787000D02*
X48760000Y-29787000D01*
X52760000Y-17787000D02*
X67760000Y-17787000D01*
X161182052Y-121907014D02*
G75*
G03*
X161182096Y-119078630I-1414152J1414214D01*
G01*
X67760000Y-17787000D02*
G75*
G03*
X69760000Y-15787000I0J2000000D01*
G01*
X18411000Y-177962000D02*
G75*
G03*
X16411000Y-175962000I-2000000J0D01*
G01*
X128260000Y-20787000D02*
G75*
G03*
X126260000Y-18787000I-2000000J0D01*
G01*
X96910982Y-181130525D02*
G75*
G03*
X97496786Y-182544739I2000018J25D01*
G01*
X39661000Y-235212000D02*
X106202108Y-235212000D01*
X128260000Y-36037000D02*
X128260000Y-20787000D01*
X96911000Y-181130525D02*
X96911000Y-100462000D01*
X96911000Y-100462000D02*
G75*
G03*
X94911000Y-98462000I-2000000J0D01*
G01*
X29411000Y-134462000D02*
X29411000Y-117462000D01*
X14760000Y-97287000D02*
X95428525Y-97287000D01*
X52760000Y-17787000D02*
G75*
G03*
X50760000Y-19787000I0J-2000000D01*
G01*
X33411000Y-115462000D02*
X33411000Y-100462000D01*
X69760000Y-15787000D02*
X69760000Y-14787000D01*
X37661000Y-215962000D02*
X37661000Y-233212000D01*
X149510000Y-40037000D02*
G75*
G03*
X147510000Y-38037000I-2000000J0D01*
G01*
X90260000Y-14787000D02*
X90260000Y-16787000D01*
X96842738Y-97872786D02*
X139615339Y-140645387D01*
X17411000Y-153462000D02*
X17411000Y-138462000D01*
X149509994Y-106578107D02*
G75*
G03*
X150095786Y-107992321I2000006J7D01*
G01*
X18411000Y-211962000D02*
G75*
G03*
X20411000Y-213962000I2000000J0D01*
G01*
X118702630Y-246884096D02*
X107616321Y-235797786D01*
X140269387Y-225317339D02*
X97496786Y-182544738D01*
X12411000Y-173962000D02*
G75*
G03*
X14411000Y-175962000I2000000J0D01*
G01*
X31411000Y-117462000D02*
G75*
G03*
X33411000Y-115462000I0J2000000D01*
G01*
X118702586Y-246884140D02*
G75*
G03*
X121531058Y-246884096I1414214J1414240D01*
G01*
X48760000Y-29787000D02*
G75*
G03*
X50760000Y-27787000I0J2000000D01*
G01*
X19411000Y-136462000D02*
G75*
G03*
X17411000Y-138462000I0J-2000000D01*
G01*
X15411000Y-155462000D02*
G75*
G03*
X17411000Y-153462000I0J2000000D01*
G01*
X150095786Y-107992321D02*
X161182096Y-119078631D01*
X12411000Y-173962000D02*
X12411000Y-157462000D01*
X71760000Y-12787000D02*
G75*
G03*
X69760000Y-14787000I0J-2000000D01*
G01*
X12760000Y-95287000D02*
G75*
G03*
X14760000Y-97287000I2000000J0D01*
G01*
X14760000Y-33787000D02*
G75*
G03*
X12760000Y-35787000I0J-2000000D01*
G01*
X140269387Y-228145766D02*
G75*
G03*
X140269387Y-225317340I-1414214J1414213D01*
G01*
X31760000Y-33787000D02*
X31760000Y-31787000D01*
X29411000Y-117462000D02*
X31411000Y-117462000D01*
X142443766Y-140645387D02*
X161182096Y-121907058D01*
X27411000Y-136462000D02*
G75*
G03*
X29411000Y-134462000I0J2000000D01*
G01*
X92260000Y-18787000D02*
X126260000Y-18787000D01*
X139615386Y-140645340D02*
G75*
G03*
X142443766Y-140645388I1414214J1414140D01*
G01*
X35411000Y-98462000D02*
G75*
G03*
X33411000Y-100462000I0J-2000000D01*
G01*
X37661000Y-215962000D02*
G75*
G03*
X35661000Y-213962000I-2000000J0D01*
G01*
X90260000Y-14787000D02*
G75*
G03*
X88260000Y-12787000I-2000000J0D01*
G01*
X96842726Y-97872798D02*
G75*
G03*
X95428524Y-97287000I-1414226J-1414202D01*
G01*
X16411000Y-175962000D02*
X14411000Y-175962000D01*
X14411000Y-155462000D02*
X15411000Y-155462000D01*
X128260000Y-36037000D02*
G75*
G03*
X130260000Y-38037000I2000000J0D01*
G01*
X14411000Y-155462000D02*
G75*
G03*
X12411000Y-157462000I0J-2000000D01*
G01*
X37661000Y-233212000D02*
G75*
G03*
X39661000Y-235212000I2000000J0D01*
G01*
X94911000Y-98462000D02*
X35411000Y-98462000D01*
X147510000Y-38037000D02*
X130260000Y-38037000D01*
X14760000Y-33787000D02*
X31760000Y-33787000D01*
X33760000Y-29787000D02*
G75*
G03*
X31760000Y-31787000I0J-2000000D01*
G01*
X35661000Y-213962000D02*
X20411000Y-213962000D01*
X18411000Y-211962000D02*
X18411000Y-177962000D01*
X27411000Y-136462000D02*
X19411000Y-136462000D01*
X90260000Y-16787000D02*
G75*
G03*
X92260000Y-18787000I2000000J0D01*
G01*
X149510000Y-106578107D02*
X149510000Y-40037000D01*
M02*
