M48
; DRILL file {KiCad (6.0.7)} date Fri Aug 26 13:32:52 2022
; FORMAT={-:-/ absolute / inch / decimal}
; #@! TF.CreationDate,2022-08-26T13:32:52+02:00
; #@! TF.GenerationSoftware,Kicad,Pcbnew,(6.0.7)
; #@! TF.FileFunction,NonPlated,1,2,NPTH
FMAT,2
INCH
; #@! TA.AperFunction,NonPlated,NPTH,ComponentDrill
T1C0.0591
; #@! TA.AperFunction,NonPlated,NPTH,ComponentDrill
T2C0.0670
; #@! TA.AperFunction,NonPlated,NPTH,ComponentDrill
T3C0.1181
; #@! TA.AperFunction,NonPlated,NPTH,ComponentDrill
T4C0.1570
%
G90
G05
T1
X3.1638Y-8.8627
X3.1638Y-9.1383
X5.4886Y-3.1786
X5.7642Y-3.1786
T2
X0.7059Y-1.7337
X0.7059Y-2.4818
X0.7059Y-3.2298
X0.8922Y-6.3241
X0.8922Y-6.7241
X1.089Y-5.5761
X1.089Y-5.9761
X1.1059Y-1.7337
X1.1059Y-2.4818
X1.1059Y-3.2298
X1.1284Y-7.0721
X1.1284Y-7.4721
X1.1284Y-7.8202
X1.1284Y-8.2202
X1.4539Y-1.5763
X1.4539Y-2.3243
X1.4539Y-3.0723
X1.5615Y-4.828
X1.5615Y-5.228
X1.6402Y-6.3241
X1.6402Y-6.7241
X1.7189Y-4.08
X1.7189Y-4.48
X1.837Y-5.5761
X1.837Y-5.9761
X1.8539Y-1.5763
X1.8539Y-2.3243
X1.8539Y-3.0723
X1.8764Y-7.0721
X1.8764Y-7.4721
X1.8764Y-7.8202
X1.8764Y-8.2202
X2.202Y-1.1038
X2.202Y-1.8519
X2.202Y-2.5999
X2.3095Y-4.828
X2.3095Y-5.228
X2.3882Y-6.3241
X2.3882Y-6.7241
X2.467Y-4.08
X2.467Y-4.48
X2.5851Y-5.5761
X2.5851Y-5.9761
X2.602Y-1.1038
X2.602Y-1.8519
X2.602Y-2.5999
X2.6244Y-7.0721
X2.6244Y-7.4721
X2.95Y-0.907
X2.95Y-1.655
X2.95Y-2.403
X3.0575Y-4.828
X3.0575Y-5.228
X3.215Y-4.08
X3.215Y-4.48
X3.35Y-0.907
X3.35Y-1.655
X3.35Y-2.403
X3.6689Y-8.1492
X3.698Y-1.1432
X3.698Y-1.8912
X3.698Y-2.6393
X3.9517Y-7.8663
X4.098Y-1.1432
X4.098Y-1.8912
X4.098Y-2.6393
X4.1978Y-8.6781
X4.4461Y-1.1432
X4.4461Y-1.8912
X4.4807Y-8.3953
X4.4922Y-3.9666
X4.7268Y-9.2071
X4.7751Y-3.6837
X4.8461Y-1.1432
X4.8461Y-1.8912
X5.0096Y-8.9242
X5.0212Y-4.4955
X5.304Y-4.2126
X5.5501Y-5.0244
X5.833Y-4.7416
T3
X0.6922Y-6.4241
X0.7559Y-1.6337
X0.7559Y-2.3818
X0.7559Y-3.1298
X0.7922Y-6.6741
X0.889Y-5.6761
X0.9284Y-7.1721
X0.9284Y-7.9202
X0.989Y-5.9261
X1.0059Y-1.5337
X1.0059Y-2.2818
X1.0059Y-3.0298
X1.0284Y-7.4221
X1.0284Y-8.1702
X1.3615Y-4.928
X1.4402Y-6.4241
X1.4615Y-5.178
X1.5039Y-1.4763
X1.5039Y-2.2243
X1.5039Y-2.9723
X1.5189Y-4.18
X1.5402Y-6.6741
X1.6189Y-4.43
X1.637Y-5.6761
X1.6764Y-7.1721
X1.6764Y-7.9202
X1.737Y-5.9261
X1.7539Y-1.3763
X1.7539Y-2.1243
X1.7539Y-2.8723
X1.7764Y-7.4221
X1.7764Y-8.1702
X2.1095Y-4.928
X2.1882Y-6.4241
X2.2095Y-5.178
X2.252Y-1.0038
X2.252Y-1.7519
X2.252Y-2.4999
X2.267Y-4.18
X2.2882Y-6.6741
X2.367Y-4.43
X2.3851Y-5.6761
X2.4244Y-7.1721
X2.4851Y-5.9261
X2.502Y-0.9038
X2.502Y-1.6519
X2.502Y-2.3999
X2.5244Y-7.4221
X2.8575Y-4.928
X2.9575Y-5.178
X3.0Y-0.807
X3.0Y-1.555
X3.0Y-2.303
X3.015Y-4.18
X3.115Y-4.43
X3.25Y-0.707
X3.25Y-1.455
X3.25Y-2.203
X3.6336Y-8.0431
X3.7396Y-7.7956
X3.748Y-1.0432
X3.748Y-1.7912
X3.748Y-2.5393
X3.998Y-0.9432
X3.998Y-1.6912
X3.998Y-2.4393
X4.1625Y-8.5721
X4.2686Y-8.3246
X4.4569Y-3.8605
X4.4961Y-1.0432
X4.4961Y-1.7912
X4.563Y-3.613
X4.6914Y-9.101
X4.7461Y-0.9432
X4.7461Y-1.6912
X4.7975Y-8.8535
X4.9858Y-4.3894
X5.0919Y-4.1419
X5.5148Y-4.9184
X5.6208Y-4.6709
T4
X0.8922Y-6.5241
X0.9059Y-1.7337
X0.9059Y-2.4818
X0.9059Y-3.2298
X1.089Y-5.7761
X1.1284Y-7.2721
X1.1284Y-8.0202
X1.5615Y-5.028
X1.6402Y-6.5241
X1.6539Y-1.5763
X1.6539Y-2.3243
X1.6539Y-3.0723
X1.7189Y-4.28
X1.837Y-5.7761
X1.8764Y-7.2721
X1.8764Y-8.0202
X2.3095Y-5.028
X2.3882Y-6.5241
X2.402Y-1.1038
X2.402Y-1.8519
X2.402Y-2.5999
X2.467Y-4.28
X2.5851Y-5.7761
X2.6244Y-7.2721
X3.0575Y-5.028
X3.15Y-0.907
X3.15Y-1.655
X3.15Y-2.403
X3.215Y-4.28
X3.8103Y-8.0078
X3.898Y-1.1432
X3.898Y-1.8912
X3.898Y-2.6393
X4.3393Y-8.5367
X4.6337Y-3.8251
X4.6461Y-1.1432
X4.6461Y-1.8912
X4.8682Y-9.0656
X5.1626Y-4.3541
X5.6915Y-4.883
T0
M30
