M48
; DRILL file {KiCad (6.0.7)} date Fri Aug 26 13:32:52 2022
; FORMAT={-:-/ absolute / inch / decimal}
; #@! TF.CreationDate,2022-08-26T13:32:52+02:00
; #@! TF.GenerationSoftware,Kicad,Pcbnew,(6.0.7)
; #@! TF.FileFunction,Plated,1,2,PTH
FMAT,2
INCH
; #@! TA.AperFunction,Plated,PTH,ViaDrill
T1C0.0157
; #@! TA.AperFunction,Plated,PTH,ComponentDrill
T2C0.0354
; #@! TA.AperFunction,Plated,PTH,ComponentDrill
T3C0.0390
; #@! TA.AperFunction,Plated,PTH,ComponentDrill
T4C0.0394
; #@! TA.AperFunction,Plated,PTH,ComponentDrill
T5C0.0430
; #@! TA.AperFunction,Plated,PTH,ComponentDrill
T6C0.0591
%
G90
G05
T1
X2.405Y-8.0378
X2.66Y-8.2378
T3
X0.8209Y-6.2091
X1.0178Y-5.4611
X1.0571Y-6.9572
X1.0571Y-7.7052
X1.1209Y-6.2091
X1.2209Y-1.6625
X1.2209Y-1.9625
X1.2209Y-2.4105
X1.2209Y-2.7105
X1.2209Y-3.1585
X1.2209Y-3.4585
X1.3178Y-5.4611
X1.3571Y-6.9572
X1.3571Y-7.7052
X1.4902Y-4.7131
X1.5689Y-6.2091
X1.6477Y-3.965
X1.7658Y-5.4611
X1.7902Y-4.7131
X1.8052Y-6.9572
X1.8052Y-7.7052
X1.8689Y-6.2091
X1.9477Y-3.965
X1.9689Y-1.505
X1.9689Y-1.805
X1.9689Y-2.253
X1.9689Y-2.553
X1.9689Y-3.0011
X1.9689Y-3.3011
X2.0658Y-5.4611
X2.1052Y-6.9572
X2.1052Y-7.7052
X2.2382Y-4.7131
X2.317Y-6.2091
X2.3957Y-3.965
X2.5138Y-5.4611
X2.5382Y-4.7131
X2.5532Y-6.9572
X2.617Y-6.2091
X2.6957Y-3.965
X2.7169Y-1.0326
X2.7169Y-1.3326
X2.7169Y-1.7806
X2.7169Y-2.0806
X2.7169Y-2.5286
X2.7169Y-2.8286
X2.8138Y-5.4611
X2.8532Y-6.9572
X2.8681Y-6.6816
X2.9863Y-4.7131
X3.1437Y-3.965
X3.1681Y-6.6816
X3.2863Y-4.7131
X3.3075Y-2.883
X3.3075Y-3.183
X3.4437Y-3.965
X3.465Y-0.8357
X3.465Y-1.1357
X3.465Y-1.5837
X3.465Y-1.8837
X3.465Y-2.3318
X3.465Y-2.6318
X4.213Y-1.0719
X4.213Y-1.3719
X4.213Y-1.82
X4.213Y-2.12
X4.213Y-2.568
X4.213Y-2.868
X4.961Y-1.0719
X4.961Y-1.3719
X4.961Y-1.82
X4.961Y-2.12
T4
X3.3119Y-6.8044
X3.3119Y-7.3753
X3.4103Y-7.3753
X3.4303Y-3.3298
X3.4303Y-3.5267
X3.5087Y-6.8044
X3.5087Y-7.3753
X4.0012Y-3.3298
X4.0012Y-3.4282
X4.0012Y-3.5267
T5
X1.7201Y-8.5272
X1.7201Y-9.1272
X1.8201Y-8.5272
X1.8201Y-9.1272
X1.9201Y-8.5272
X1.9201Y-9.1272
X2.0201Y-8.5272
X2.0201Y-9.1272
X2.1201Y-8.5272
X2.1201Y-9.1272
X2.2201Y-8.5272
X2.2201Y-9.1272
X2.3201Y-8.5272
X2.3201Y-9.1272
X2.4201Y-8.5272
X2.4201Y-9.1272
X2.5201Y-8.5272
X2.5201Y-9.1272
X2.6201Y-8.5272
X2.6201Y-9.1272
X2.7201Y-8.5272
X2.7201Y-9.1272
X2.8201Y-8.5272
X2.8201Y-9.1272
X5.1531Y-1.7349
X5.1531Y-1.8349
X5.1531Y-1.9349
X5.1531Y-2.0349
X5.1531Y-2.1349
X5.1531Y-2.2349
X5.1531Y-2.3349
X5.1531Y-2.4349
X5.1531Y-2.5349
X5.1531Y-2.6349
X5.1531Y-2.7349
X5.1531Y-2.8349
X5.7531Y-1.7349
X5.7531Y-1.8349
X5.7531Y-1.9349
X5.7531Y-2.0349
X5.7531Y-2.1349
X5.7531Y-2.2349
X5.7531Y-2.3349
X5.7531Y-2.4349
X5.7531Y-2.5349
X5.7531Y-2.6349
X5.7531Y-2.7349
X5.7531Y-2.8349
T2
G00X3.0733Y-8.8115
M15
G01X3.0733Y-8.7879
M16
G05
G00X3.0733Y-8.969
M15
G01X3.0733Y-8.9454
M16
G05
G00X3.0733Y-9.0871
M15
G01X3.0733Y-9.0635
M16
G05
G00X3.2544Y-8.7682
M15
G01X3.2544Y-8.7446
M16
G05
G00X5.3941Y-3.0881
M15
G01X5.3705Y-3.0881
M16
G05
G00X5.4374Y-3.2692
M15
G01X5.4138Y-3.2692
M16
G05
G00X5.5949Y-3.2692
M15
G01X5.5713Y-3.2692
M16
G05
G00X5.713Y-3.2692
M15
G01X5.6894Y-3.2692
M16
G05
T6
G00X3.1898Y-7.1056
M15
G01X3.1898Y-7.0544
M16
G05
G00X3.6307Y-7.1056
M15
G01X3.6307Y-7.0544
M16
G05
G00X3.7315Y-3.2078
M15
G01X3.6803Y-3.2078
M16
G05
G00X3.7315Y-3.6487
M15
G01X3.6803Y-3.6487
M16
G05
T0
M30
